{"glyphs":{"0":{"ha":535,"x_min":39,"x_max":739,"o":"m 192 729 q 305 921 224 856 q 510 986 386 986 q 688 919 636 986 q 708 729 739 853 l 588 244 q 472 53 556 119 q 261 -14 388 -14 q 88 52 138 -14 q 71 244 39 118 l 192 729 m 317 225 q 319 203 311 203 q 333 225 328 203 l 463 747 q 460 769 468 769 q 446 747 451 769 l 317 225 z "},"1":{"ha":325,"x_min":67,"x_max":560,"o":"m 67 0 l 251 742 l 247 756 l 197 756 l 251 972 l 560 972 l 317 0 l 67 0 z "},"2":{"ha":535,"x_min":10,"x_max":739,"o":"m 192 729 q 307 919 222 853 q 517 986 392 986 q 690 921 640 986 q 707 729 739 856 l 704 717 q 669 600 689 656 q 624 498 650 544 q 566 417 599 451 q 492 361 533 382 l 442 336 q 377 303 400 315 q 343 283 354 292 q 328 267 332 274 q 322 250 325 260 l 319 239 l 585 239 l 525 0 l 10 0 l 61 207 q 92 310 76 268 q 129 381 108 351 q 178 431 150 410 q 247 472 207 453 l 289 493 q 360 531 335 517 q 400 556 386 544 q 419 581 414 568 q 429 614 424 593 l 461 747 q 458 769 467 769 q 444 747 450 769 l 401 569 l 151 569 l 192 729 z "},"3":{"ha":535,"x_min":39,"x_max":740,"o":"m 463 747 q 460 769 468 769 q 446 747 451 769 l 419 639 l 169 639 l 192 729 q 307 919 222 853 q 518 986 392 986 q 691 921 642 986 q 708 729 740 856 l 701 703 q 667 613 689 651 q 619 549 644 575 q 566 510 593 524 q 515 496 539 497 l 511 479 q 555 465 535 479 q 588 424 575 451 q 602 354 600 396 q 590 256 604 313 l 583 229 q 473 49 554 113 q 268 -14 392 -14 q 91 53 143 -14 q 71 243 39 119 l 93 333 l 343 333 l 315 225 q 318 203 310 203 q 332 225 326 203 l 351 300 q 360 372 365 353 q 310 392 356 392 l 286 392 l 333 581 l 357 581 q 394 585 381 581 q 417 599 408 589 q 432 628 426 610 q 444 672 438 646 l 463 747 z "},"4":{"ha":535,"x_min":72,"x_max":768,"o":"m 768 972 l 526 0 l 276 0 l 339 251 l 72 251 l 251 972 l 501 972 l 376 468 l 393 468 l 518 972 l 768 972 z "},"5":{"ha":535,"x_min":39,"x_max":740,"o":"m 251 972 l 740 972 l 686 756 l 449 756 l 435 703 l 440 703 q 561 733 511 733 q 658 682 633 733 q 664 556 683 631 l 586 244 q 473 52 554 118 q 268 -14 392 -14 q 91 53 143 -14 q 71 244 39 119 l 108 394 l 358 394 l 315 225 q 318 203 310 203 q 332 225 326 203 l 410 535 q 407 556 417 556 q 393 535 400 556 l 364 417 l 114 417 l 251 972 z "},"6":{"ha":535,"x_min":39,"x_max":739,"o":"m 429 613 l 463 747 q 460 769 468 769 q 447 747 453 769 l 401 564 l 418 564 q 466 588 439 581 q 518 596 493 596 q 576 585 550 596 q 617 551 601 574 q 637 493 633 528 q 629 411 640 458 l 588 244 q 472 53 556 119 q 261 -14 388 -14 q 88 52 138 -14 q 71 244 39 118 l 192 729 q 305 921 224 856 q 510 986 386 986 q 688 919 636 986 q 708 729 739 853 l 679 613 l 429 613 m 317 225 q 319 203 311 203 q 333 225 328 203 l 363 343 q 358 364 367 364 q 346 343 350 364 l 317 225 z "},"7":{"ha":471,"x_min":42,"x_max":704,"o":"m 251 972 l 704 972 l 650 756 l 299 0 l 42 0 l 389 743 l 382 756 l 197 756 l 251 972 z "},"8":{"ha":535,"x_min":54,"x_max":725,"o":"m 194 743 q 233 847 210 801 q 294 923 257 892 q 383 970 331 954 q 507 986 435 986 q 627 969 581 986 q 697 921 674 953 q 723 844 721 889 q 711 743 725 800 l 703 711 q 674 633 693 668 q 631 574 654 599 q 581 535 607 549 q 531 521 554 521 l 526 504 q 569 491 550 504 q 599 450 589 478 q 610 378 610 422 q 594 274 610 335 l 588 244 q 547 134 572 182 q 481 53 521 86 q 387 3 442 21 q 258 -14 332 -14 q 142 3 186 -14 q 76 52 97 19 q 55 133 56 85 q 71 244 54 182 l 78 274 q 152 447 106 389 q 246 504 199 504 l 250 521 q 183 573 201 521 q 186 711 165 625 l 194 743 m 419 643 q 422 621 415 621 q 436 643 432 621 l 463 747 q 460 769 468 769 q 446 747 451 769 l 419 643 m 315 225 q 318 203 310 203 q 332 225 326 203 l 371 382 q 368 404 376 404 q 354 382 360 404 l 315 225 z "},"9":{"ha":535,"x_min":39,"x_max":740,"o":"m 349 360 l 317 225 q 319 203 311 203 q 332 225 326 203 l 376 408 l 360 408 q 313 384 340 392 q 261 376 286 376 q 202 388 228 376 q 160 422 176 399 q 141 479 144 444 q 149 561 138 514 l 190 728 q 307 919 222 853 q 518 986 392 986 q 691 920 642 986 q 708 728 740 854 l 588 243 q 474 51 556 117 q 269 -14 392 -14 q 91 53 143 -14 q 69 243 39 119 l 99 360 l 349 360 m 463 747 q 460 769 468 769 q 446 747 451 769 l 417 629 q 419 608 411 608 q 433 629 428 608 l 463 747 z "},"\u0000":{"ha":0,"x_min":0,"x_max":0,"o":""},"\r":{"ha":347,"x_min":0,"x_max":0,"o":""}," ":{"ha":222,"x_min":0,"x_max":0,"o":""},"F":{"ha":374,"x_min":10,"x_max":614,"o":"m 449 756 l 408 594 l 513 594 l 458 378 l 354 378 l 260 0 l 10 0 l 253 972 l 614 972 l 560 756 l 449 756 z "},"G":{"ha":535,"x_min":54,"x_max":739,"o":"m 396 544 l 661 544 l 526 0 l 357 0 l 376 78 l 360 78 q 293 10 338 33 q 201 -14 249 -14 q 135 1 167 -14 q 84 47 104 15 q 59 126 64 78 q 71 244 54 175 l 192 729 q 305 921 224 856 q 510 986 386 986 q 687 919 635 986 q 707 729 739 853 l 668 572 l 418 572 l 463 747 q 460 769 468 769 q 446 747 451 769 l 396 544 m 357 393 l 315 225 q 318 203 311 203 q 332 225 328 203 l 372 383 l 356 383 l 357 393 z "},"H":{"ha":535,"x_min":10,"x_max":768,"o":"m 768 972 l 526 0 l 276 0 l 374 390 l 357 390 l 260 0 l 10 0 l 251 972 l 501 972 l 410 607 l 426 607 l 518 972 l 768 972 z "},"I":{"ha":268,"x_min":10,"x_max":501,"o":"m 501 972 l 260 0 l 10 0 l 251 972 l 501 972 z "},"J":{"ha":535,"x_min":39,"x_max":769,"o":"m 769 972 l 588 244 q 472 53 557 119 q 260 -14 388 -14 q 86 52 133 -14 q 71 244 39 118 l 126 465 l 376 465 l 317 225 q 319 203 311 203 q 333 225 328 203 l 519 972 l 769 972 z "},"K":{"ha":544,"x_min":10,"x_max":782,"o":"m 407 593 l 424 593 l 518 972 l 782 972 l 603 486 l 540 0 l 276 0 l 369 378 l 353 378 l 260 0 l 10 0 l 251 972 l 501 972 l 407 593 z "},"L":{"ha":375,"x_min":10,"x_max":501,"o":"m 501 972 l 313 217 l 424 217 l 371 0 l 10 0 l 251 972 l 501 972 z "},"M":{"ha":671,"x_min":10,"x_max":904,"o":"m 571 972 l 438 439 l 454 439 l 588 972 l 904 972 l 663 0 l 433 0 l 593 528 l 578 528 l 411 0 l 260 0 l 357 528 l 340 528 l 239 0 l 10 0 l 251 972 l 571 972 z "},"N":{"ha":557,"x_min":10,"x_max":790,"o":"m 790 972 l 549 0 l 281 0 l 349 528 l 335 528 l 260 0 l 10 0 l 251 972 l 519 972 l 457 439 l 471 439 l 540 972 l 790 972 z "},"O":{"ha":535,"x_min":39,"x_max":739,"o":"m 192 729 q 305 921 224 856 q 510 986 386 986 q 688 919 636 986 q 708 729 739 853 l 588 244 q 472 53 556 119 q 261 -14 388 -14 q 88 52 138 -14 q 71 244 39 118 l 192 729 m 317 225 q 319 203 311 203 q 333 225 328 203 l 463 747 q 460 769 468 769 q 446 747 451 769 l 317 225 z "},"P":{"ha":535,"x_min":10,"x_max":726,"o":"m 507 972 q 679 888 632 972 q 681 621 726 803 l 676 604 q 623 454 654 515 q 550 356 592 393 q 454 302 508 318 q 333 286 400 286 l 331 286 l 260 0 l 10 0 l 253 972 l 507 972 m 385 503 l 388 503 q 402 509 400 503 q 407 525 404 515 l 460 733 q 463 752 463 749 q 451 756 463 756 l 449 756 l 385 503 z "},"Q":{"ha":535,"x_min":44,"x_max":739,"o":"m 190 729 q 303 921 222 856 q 510 986 385 986 q 688 919 636 986 q 708 729 739 853 l 588 244 q 500 80 563 143 q 347 -4 438 17 l 344 -14 q 356 -31 340 -31 l 465 -31 l 419 -211 l 331 -211 q 243 -203 279 -211 q 187 -176 207 -196 q 164 -124 167 -157 q 174 -37 161 -90 l 181 -6 q 73 77 101 14 q 71 244 44 140 l 190 729 m 314 225 q 317 203 310 203 q 331 225 326 203 l 463 747 q 460 769 468 769 q 444 747 450 769 l 314 225 z "},"R":{"ha":535,"x_min":10,"x_max":738,"o":"m 508 972 q 685 909 633 972 q 704 713 738 846 l 700 692 q 661 594 686 636 q 608 522 636 551 q 551 478 581 493 q 500 464 522 464 l 496 447 q 539 431 518 447 q 573 383 560 414 q 590 308 586 353 q 579 208 593 264 l 576 197 q 552 93 561 142 q 540 0 543 44 l 290 0 q 302 94 293 46 q 326 200 311 143 l 357 325 q 360 344 361 340 q 349 347 360 347 l 346 347 l 260 0 l 10 0 l 253 972 l 508 972 m 400 564 l 403 564 q 417 570 415 564 q 422 586 419 576 l 460 735 q 463 752 463 749 q 451 756 463 756 l 449 756 l 400 564 z "},"S":{"ha":535,"x_min":39,"x_max":739,"o":"m 436 639 l 463 747 q 460 769 468 769 q 446 747 451 769 l 426 669 q 422 644 422 654 q 430 623 422 633 q 456 599 438 613 q 510 563 475 585 l 542 542 q 590 499 572 522 q 613 443 607 475 q 613 367 618 411 q 592 263 607 324 l 586 244 q 472 53 556 119 q 261 -14 388 -14 q 88 52 136 -14 q 71 244 39 118 l 93 333 l 343 333 l 317 225 q 319 203 311 203 q 332 224 328 203 l 353 306 q 357 331 357 321 q 350 350 357 340 q 326 372 343 360 q 279 406 310 385 l 242 431 q 192 476 210 451 q 168 533 174 500 q 168 611 163 567 q 189 717 174 656 l 196 743 q 305 923 224 860 q 510 986 386 986 q 687 919 635 986 q 707 729 739 853 l 685 639 l 436 639 z "},"T":{"ha":513,"x_min":131,"x_max":749,"o":"m 694 756 l 569 756 l 381 0 l 131 0 l 319 756 l 194 756 l 249 972 l 749 972 l 694 756 z "},"U":{"ha":535,"x_min":39,"x_max":769,"o":"m 503 972 l 317 225 q 319 203 311 203 q 333 225 328 203 l 519 972 l 769 972 l 588 244 q 472 53 557 119 q 261 -14 388 -14 q 88 52 136 -14 q 71 244 39 118 l 253 972 l 503 972 z "},"V":{"ha":526,"x_min":67,"x_max":764,"o":"m 497 972 l 325 279 l 342 279 l 514 972 l 764 972 l 456 0 l 67 0 l 247 972 l 497 972 z "},"W":{"ha":704,"x_min":67,"x_max":942,"o":"m 497 972 l 350 436 l 367 436 l 514 972 l 675 972 l 556 436 l 572 436 l 692 972 l 942 972 l 633 0 l 358 0 l 443 343 l 426 343 l 342 0 l 67 0 l 247 972 l 497 972 z "},"X":{"ha":549,"x_min":6,"x_max":786,"o":"m 415 596 l 433 596 l 526 972 l 786 972 l 618 483 l 544 0 l 283 0 l 378 379 l 361 379 l 267 0 l 6 0 l 174 483 l 247 972 l 508 972 l 415 596 z "},"Y":{"ha":526,"x_min":136,"x_max":764,"o":"m 497 972 l 407 607 l 424 607 l 514 972 l 764 972 l 451 264 l 386 0 l 136 0 l 201 264 l 247 972 l 497 972 z "},"Z":{"ha":471,"x_min":6,"x_max":693,"o":"m 693 972 l 639 754 l 318 229 l 325 217 l 521 217 l 467 0 l 6 0 l 60 217 l 382 743 l 374 756 l 207 756 l 261 972 l 693 972 z "},"a":{"ha":507,"x_min":25,"x_max":646,"o":"m 385 497 q 382 519 390 519 q 368 497 374 519 l 346 404 l 110 404 l 129 483 q 237 659 157 596 q 431 722 317 722 q 595 658 544 722 q 618 483 646 594 l 497 0 l 261 0 l 275 53 l 269 53 q 199 2 233 18 q 132 -14 164 -14 q 51 25 76 -14 q 40 126 25 64 l 69 242 q 94 297 76 271 q 136 341 113 322 q 189 371 160 360 q 249 382 218 382 l 357 382 l 385 497 m 328 268 l 318 268 q 308 257 313 268 l 290 181 q 294 169 288 169 q 306 176 299 169 l 328 268 z "},"b":{"ha":507,"x_min":8,"x_max":658,"o":"m 258 1000 l 496 1000 l 407 647 l 424 647 q 485 704 451 686 q 557 722 519 722 q 636 681 614 722 q 638 554 658 640 l 543 178 q 474 38 521 89 q 367 -14 426 -14 q 308 5 332 -14 q 276 61 285 24 l 260 61 l 244 0 l 8 0 l 258 1000 m 296 200 q 303 193 299 193 q 314 207 311 193 l 388 504 q 385 515 392 515 q 372 508 379 515 l 296 200 z "},"c":{"ha":507,"x_min":36,"x_max":646,"o":"m 297 211 q 300 189 292 189 q 314 211 308 189 l 346 340 l 582 340 l 553 225 q 510 126 539 169 q 442 51 482 82 q 353 3 403 19 q 246 -14 303 -14 q 84 49 132 -14 q 64 225 36 113 l 129 483 q 237 659 157 596 q 431 722 317 722 q 595 658 544 722 q 618 483 646 594 l 589 368 l 353 368 l 385 497 q 382 519 390 519 q 368 497 374 519 l 297 211 z "},"d":{"ha":507,"x_min":46,"x_max":747,"o":"m 263 0 l 278 63 l 261 63 q 199 6 232 25 q 136 -14 165 -14 q 91 -1 111 -14 q 59 39 71 13 q 47 106 47 65 q 58 199 46 146 l 149 560 q 218 685 171 646 q 313 724 265 724 q 374 703 347 724 q 407 646 400 682 l 424 646 l 511 1000 l 747 1000 l 499 0 l 263 0 m 389 508 q 381 515 385 515 q 371 504 374 515 l 297 208 q 301 196 294 196 q 313 203 306 196 l 389 508 z "},"e":{"ha":507,"x_min":36,"x_max":646,"o":"m 565 271 l 554 225 q 444 50 526 114 q 247 -14 361 -14 q 84 49 132 -14 q 64 225 36 113 l 129 483 q 237 659 157 596 q 431 722 317 722 q 595 658 544 722 q 618 483 646 594 l 572 299 l 319 299 l 297 211 q 300 189 293 189 q 314 211 310 189 l 329 271 l 565 271 m 350 424 l 367 424 l 386 497 q 383 519 390 519 q 369 497 374 519 l 350 424 z "},"f":{"ha":392,"x_min":56,"x_max":636,"o":"m 243 750 q 288 869 261 821 q 349 946 314 917 q 427 988 385 975 q 518 1000 469 1000 q 636 988 574 1000 l 586 786 q 569 789 578 788 q 549 790 560 790 q 504 779 525 790 q 475 736 483 768 l 468 708 l 567 708 l 517 506 l 418 506 l 292 0 l 56 0 l 182 506 l 126 506 l 178 708 l 233 708 l 243 750 z "},"g":{"ha":507,"x_min":-36,"x_max":674,"o":"m 478 -81 q 376 -237 453 -182 q 182 -292 300 -292 q 14 -236 64 -292 q -11 -81 -36 -181 l 0 -36 l 236 -36 l 229 -67 q 232 -89 224 -89 q 246 -64 240 -89 l 276 61 l 261 61 q 201 6 235 25 q 135 -14 168 -14 q 53 38 75 -14 q 53 178 31 89 l 144 540 q 210 674 165 626 q 315 722 256 722 q 374 704 350 722 q 407 647 399 686 l 422 647 l 438 708 l 674 708 l 478 -81 m 388 506 q 381 514 386 514 q 369 501 374 514 l 299 213 q 300 193 294 193 q 313 203 303 193 l 388 506 z "},"h":{"ha":507,"x_min":8,"x_max":644,"o":"m 258 1000 l 494 1000 l 406 647 l 422 647 q 551 722 476 722 q 597 713 576 722 q 629 681 618 703 q 642 624 640 658 q 632 540 644 589 l 497 0 l 261 0 l 386 503 q 382 514 390 514 q 371 507 378 514 l 244 0 l 8 0 l 258 1000 z "},"i":{"ha":257,"x_min":11,"x_max":485,"o":"m 217 860 q 272 945 232 918 q 369 972 311 972 q 456 945 428 972 q 469 860 485 918 q 414 774 454 801 q 315 747 374 747 q 229 774 257 747 q 217 860 201 801 m 424 708 l 247 0 l 11 0 l 188 708 l 424 708 z "},"j":{"ha":256,"x_min":-124,"x_max":483,"o":"m 215 861 q 270 947 231 919 q 368 974 310 974 q 455 947 426 974 q 468 861 483 919 q 413 776 453 803 q 314 749 372 749 q 228 776 256 749 q 215 861 200 803 m 236 -40 q 133 -231 204 -169 q -33 -292 63 -292 q -124 -279 -78 -292 l -74 -76 q -56 -78 -68 -78 q -22 -70 -36 -78 q -1 -43 -7 -62 l 186 708 l 422 708 l 236 -40 z "},"k":{"ha":496,"x_min":10,"x_max":678,"o":"m 367 485 l 383 485 l 447 708 l 678 708 l 539 372 l 510 0 l 279 0 l 325 256 l 308 256 l 246 0 l 10 0 l 258 1000 l 494 1000 l 367 485 z "},"l":{"ha":254,"x_min":8,"x_max":494,"o":"m 258 1000 l 494 1000 l 244 0 l 8 0 l 258 1000 z "},"m":{"ha":760,"x_min":8,"x_max":896,"o":"m 185 708 l 421 708 l 406 647 l 422 647 q 547 722 481 722 q 606 703 583 722 q 636 647 628 683 l 651 647 q 717 703 681 685 q 789 722 754 722 q 838 711 815 722 q 875 677 861 700 q 892 620 889 654 q 885 540 896 586 l 750 0 l 514 0 l 640 504 q 636 515 643 515 q 624 508 632 515 l 497 0 l 261 0 l 388 504 q 383 515 390 515 q 371 508 381 515 l 244 0 l 8 0 l 185 708 z "},"n":{"ha":507,"x_min":8,"x_max":644,"o":"m 185 708 l 421 708 l 406 647 l 422 647 q 551 722 479 722 q 597 713 576 722 q 629 681 618 703 q 642 624 640 658 q 632 540 644 589 l 497 0 l 261 0 l 388 506 q 383 517 390 517 q 372 510 379 517 l 244 0 l 8 0 l 185 708 z "},"o":{"ha":507,"x_min":53,"x_max":632,"o":"m 129 483 q 168 580 142 536 q 233 655 194 624 q 321 704 271 686 q 431 722 371 722 q 533 704 492 722 q 599 654 575 686 q 627 578 622 622 q 619 483 632 535 l 554 225 q 515 130 542 174 q 448 54 488 86 q 358 4 408 22 q 247 -14 307 -14 q 147 4 188 -14 q 83 53 106 22 q 57 129 61 85 q 65 225 53 174 l 129 483 m 297 211 q 300 189 292 189 q 314 211 308 189 l 385 497 q 382 519 390 519 q 368 497 374 519 l 297 211 z "},"p":{"ha":507,"x_min":-61,"x_max":651,"o":"m 421 708 l 403 633 l 419 633 q 462 678 443 661 q 497 706 481 696 q 525 719 513 715 q 550 722 538 722 q 631 669 610 722 q 629 526 651 615 l 542 176 q 474 38 519 89 q 376 -14 429 -14 q 317 7 344 -14 q 281 75 290 28 l 264 75 l 175 -278 l -61 -278 l 185 708 l 421 708 m 297 213 q 306 206 301 206 q 317 219 313 206 l 383 489 q 379 500 386 500 q 368 493 375 500 l 297 213 z "},"q":{"ha":507,"x_min":31,"x_max":674,"o":"m 428 -278 l 193 -278 l 281 75 l 264 75 q 193 7 231 28 q 124 -14 156 -14 q 51 38 71 -14 q 53 176 31 89 l 140 526 q 210 669 163 615 q 317 722 257 722 q 340 719 329 722 q 362 706 351 715 q 383 678 372 696 q 403 633 393 661 l 419 633 l 438 708 l 674 708 l 428 -278 m 385 493 q 376 500 381 500 q 367 489 369 500 l 300 219 q 303 206 296 206 q 314 213 307 206 l 385 493 z "},"r":{"ha":399,"x_min":8,"x_max":568,"o":"m 399 619 l 404 619 q 468 693 429 664 q 551 722 507 722 q 568 721 563 722 l 510 486 q 491 488 500 488 q 472 489 482 489 q 384 460 415 489 q 338 375 353 432 l 244 0 l 8 0 l 185 708 l 421 708 l 399 619 z "},"s":{"ha":507,"x_min":50,"x_max":633,"o":"m 378 467 l 386 497 q 382 518 390 518 q 369 497 374 518 l 369 496 q 369 467 364 476 q 394 447 374 458 l 481 399 q 551 330 532 369 q 551 219 569 290 l 546 197 q 510 117 536 156 q 445 50 483 79 q 356 3 407 21 q 246 -14 306 -14 q 146 3 186 -14 q 83 52 106 21 q 55 125 60 83 q 63 214 50 167 l 69 242 l 306 242 l 299 214 q 301 193 294 193 q 315 214 311 193 l 315 215 q 315 244 321 235 q 285 265 310 253 l 197 311 q 129 378 144 339 q 132 489 114 418 l 138 511 q 174 591 149 553 q 236 658 199 629 q 323 705 274 688 q 432 722 372 722 q 533 704 492 722 q 597 656 574 686 q 627 584 621 625 q 621 496 633 543 l 614 467 l 378 467 z "},"t":{"ha":397,"x_min":97,"x_max":568,"o":"m 178 708 l 233 708 l 271 861 l 510 875 l 468 708 l 568 708 l 517 506 l 418 506 l 354 250 q 363 207 347 218 q 401 196 378 196 q 422 197 413 196 q 440 200 431 199 l 390 -1 q 267 -14 322 -14 q 181 -2 218 -14 q 124 39 144 10 q 101 116 104 68 q 115 236 97 164 l 182 506 l 126 506 l 178 708 z "},"u":{"ha":507,"x_min":28,"x_max":675,"o":"m 499 0 l 263 0 l 278 61 l 261 61 q 132 -14 204 -14 q 54 28 81 -14 q 51 168 28 71 l 186 708 l 422 708 l 294 197 q 299 186 292 186 q 310 193 303 186 l 439 708 l 675 708 l 499 0 z "},"v":{"ha":501,"x_min":83,"x_max":672,"o":"m 419 708 l 313 279 l 329 279 l 436 708 l 672 708 l 417 0 l 83 0 l 183 708 l 419 708 z "},"w":{"ha":679,"x_min":85,"x_max":850,"o":"m 419 708 l 313 335 l 329 335 l 436 708 l 597 708 l 518 335 l 535 335 l 614 708 l 850 708 l 596 0 l 349 0 l 406 228 l 389 228 l 332 0 l 85 0 l 183 708 l 419 708 z "},"x":{"ha":506,"x_min":0,"x_max":682,"o":"m 353 435 l 369 435 l 438 708 l 682 708 l 556 353 l 503 0 l 260 0 l 329 276 l 313 276 l 244 0 l 0 0 l 126 353 l 178 708 l 421 708 l 353 435 z "},"y":{"ha":507,"x_min":-36,"x_max":675,"o":"m 478 -81 q 376 -237 453 -182 q 182 -292 300 -292 q 14 -236 64 -292 q -11 -81 -36 -181 l 0 -36 l 236 -36 l 229 -67 q 232 -89 224 -89 q 246 -64 240 -89 l 276 61 l 260 61 q 132 -14 203 -14 q 53 28 81 -14 q 51 168 26 71 l 186 708 l 422 708 l 294 197 q 299 186 292 186 q 310 193 303 186 l 439 708 l 675 708 l 478 -81 z "},"z":{"ha":436,"x_min":8,"x_max":594,"o":"m 8 0 l 60 201 l 281 490 l 278 506 l 142 506 l 193 708 l 594 708 l 543 507 l 321 217 l 326 203 l 478 203 l 426 0 l 8 0 z "},"$":{"ha":535,"x_min":39,"x_max":739,"o":"m 436 639 l 463 747 q 460 769 468 769 q 446 747 451 769 l 426 669 q 422 644 422 654 q 430 623 422 633 q 456 599 438 613 q 510 563 475 585 l 542 542 q 590 499 572 522 q 613 443 607 475 q 613 367 618 411 q 592 263 607 324 l 586 244 q 472 53 556 119 q 261 -14 388 -14 q 88 52 136 -14 q 71 244 39 118 l 93 333 l 343 333 l 317 225 q 319 203 311 203 q 332 224 328 203 l 353 306 q 357 331 357 321 q 350 350 357 340 q 326 372 343 360 q 279 406 310 385 l 240 431 q 192 476 210 451 q 168 533 174 500 q 168 611 163 567 q 189 717 174 656 l 196 743 q 305 923 224 860 q 510 986 386 986 q 687 919 635 986 q 707 729 739 853 l 685 639 l 436 639 m 435 1110 l 658 1110 l 606 958 l 411 958 l 435 1110 m 371 15 l 349 -137 l 125 -137 l 178 15 l 371 15 z "},"¢":{"ha":507,"x_min":36,"x_max":646,"o":"m 297 211 q 300 189 292 189 q 314 211 308 189 l 346 340 l 582 340 l 553 225 q 510 126 539 169 q 442 51 482 82 q 353 3 403 19 q 246 -14 303 -14 q 84 49 132 -14 q 64 225 36 113 l 129 483 q 237 659 157 596 q 431 722 317 722 q 595 658 544 722 q 618 483 646 594 l 589 368 l 353 368 l 385 497 q 382 519 390 519 q 368 497 374 519 l 297 211 m 354 846 l 576 846 l 524 694 l 331 694 l 354 846 m 351 13 l 328 -139 l 106 -139 l 157 13 l 351 13 z "},"¥":{"ha":528,"x_min":51,"x_max":765,"o":"m 499 972 l 408 607 l 425 607 l 515 972 l 765 972 l 561 508 l 640 508 l 601 356 l 493 356 l 486 339 l 597 339 l 560 186 l 433 186 l 388 0 l 138 0 l 183 186 l 51 186 l 89 339 l 208 339 l 208 356 l 93 356 l 132 508 l 218 508 l 249 972 l 499 972 z "},"§":{"ha":507,"x_min":-19,"x_max":699,"o":"m 436 703 l 451 761 q 447 782 456 782 q 435 761 439 782 l 413 676 q 413 648 408 657 q 439 628 418 639 l 525 579 q 595 510 576 550 q 596 400 614 471 l 569 294 q 538 221 558 254 q 485 161 518 188 q 508 105 504 138 q 501 24 513 72 l 475 -82 q 440 -162 465 -124 q 376 -229 414 -200 q 287 -276 338 -258 q 176 -293 236 -293 q 76 -276 117 -293 q 13 -227 36 -258 q -15 -155 -10 -196 q -7 -65 -19 -114 l 7 -10 l 243 -10 l 229 -65 q 232 -86 225 -86 q 246 -65 242 -86 l 267 19 q 267 48 272 39 q 236 69 261 57 l 147 115 q 80 183 94 143 q 83 293 65 222 l 110 399 q 140 467 119 435 q 193 528 161 500 q 169 585 172 551 q 178 669 165 619 l 204 775 q 240 855 215 817 q 301 922 264 893 q 388 969 339 951 q 497 986 438 986 q 598 968 557 986 q 663 919 639 950 q 692 848 686 889 q 686 760 699 807 l 672 703 l 436 703 m 317 283 q 333 298 329 290 q 339 311 338 306 l 360 396 q 363 411 363 407 q 347 400 351 407 q 340 385 343 393 l 319 300 q 317 291 318 294 q 317 283 317 288 z "},"D":{"ha":535,"x_min":10,"x_max":738,"o":"m 507 972 q 685 912 632 972 q 707 729 738 851 l 586 243 q 473 60 556 119 q 265 0 390 0 l 10 0 l 251 972 l 507 972 m 314 217 l 317 217 q 329 220 326 217 q 335 239 332 224 l 458 733 q 462 752 463 749 q 451 756 461 756 l 449 756 l 314 217 z "},"…":{"ha":760,"x_min":6,"x_max":794,"o":"m 38 119 q 188 244 69 244 q 268 212 246 244 q 275 117 290 179 q 222 25 260 57 q 125 -7 183 -7 q 38 119 6 -7 m 290 119 q 440 244 322 244 q 521 212 499 244 q 528 117 543 179 q 474 25 513 57 q 378 -7 436 -7 q 290 119 258 -7 m 542 119 q 692 244 574 244 q 772 212 750 244 q 779 117 794 179 q 726 25 764 57 q 629 -7 688 -7 q 542 119 510 -7 z "},"÷":{"ha":526,"x_min":106,"x_max":658,"o":"m 614 388 l 106 388 l 150 568 l 658 568 l 614 388 m 332 695 q 467 808 361 808 q 540 778 520 808 q 546 693 560 749 q 498 610 532 639 q 411 581 464 581 q 332 695 304 581 m 223 260 q 358 373 251 373 q 430 343 410 373 q 436 258 450 314 q 388 175 423 204 q 301 147 354 147 q 223 260 194 147 z "},"!":{"ha":268,"x_min":10,"x_max":501,"o":"m 501 972 l 467 833 l 296 254 l 100 254 l 218 833 l 251 972 l 501 972 m 42 119 q 193 244 74 244 q 274 212 251 244 q 281 117 296 179 q 227 25 265 57 q 131 -7 189 -7 q 42 119 10 -7 z "},".":{"ha":256,"x_min":6,"x_max":290,"o":"m 38 119 q 188 244 69 244 q 268 212 246 244 q 275 117 290 179 q 222 25 260 57 q 125 -7 183 -7 q 38 119 6 -7 z "},",":{"ha":257,"x_min":-44,"x_max":304,"o":"m 88 224 l 304 224 l 103 -133 l -44 -133 l 88 224 z "},":":{"ha":257,"x_min":7,"x_max":408,"o":"m 39 119 q 189 244 71 244 q 269 212 247 244 q 276 117 292 179 q 223 25 261 57 q 126 -7 185 -7 q 39 119 7 -7 m 156 592 q 306 717 188 717 q 386 684 364 717 q 393 589 408 651 q 340 497 378 529 q 243 465 301 465 q 156 592 124 465 z "},"”":{"ha":493,"x_min":150,"x_max":733,"o":"m 511 1000 l 733 1000 l 556 564 l 389 564 l 511 1000 m 272 1000 l 494 1000 l 317 564 l 150 564 l 272 1000 z "},"“":{"ha":493,"x_min":150,"x_max":733,"o":"m 372 564 l 150 564 l 328 1000 l 494 1000 l 372 564 m 611 564 l 389 564 l 567 1000 l 733 1000 l 611 564 z "},"’":{"ha":254,"x_min":150,"x_max":494,"o":"m 272 1000 l 494 1000 l 317 564 l 150 564 l 272 1000 z "},"‘":{"ha":254,"x_min":150,"x_max":494,"o":"m 372 564 l 150 564 l 328 1000 l 494 1000 l 372 564 z "},"?":{"ha":535,"x_min":129,"x_max":740,"o":"m 190 729 q 307 919 222 853 q 518 986 392 986 q 691 921 642 986 q 708 729 740 856 l 706 717 q 673 621 692 661 q 633 549 654 581 q 590 495 613 518 q 546 451 567 472 l 543 449 q 485 385 511 417 q 446 306 460 354 l 433 254 l 197 254 l 207 290 q 236 380 219 343 q 272 444 253 417 q 310 490 290 471 q 349 526 331 510 l 350 528 q 404 583 379 554 q 443 669 429 611 l 463 747 q 460 769 468 769 q 446 747 451 769 l 408 597 l 158 597 l 190 729 m 161 119 q 311 244 193 244 q 391 212 368 244 q 399 117 414 179 q 345 25 383 57 q 249 -7 307 -7 q 161 119 129 -7 z "},"|":{"ha":268,"x_min":-44,"x_max":508,"o":"m -44 -215 l 258 1000 l 508 1000 l 206 -215 l -44 -215 z "},"/":{"ha":363,"x_min":-18,"x_max":607,"o":"m -18 -111 l 385 1014 l 607 1014 l 204 -111 l -18 -111 z "},"\\":{"ha":363,"x_min":104,"x_max":485,"o":"m 263 1014 l 485 1014 l 326 -111 l 104 -111 l 263 1014 z "},"⁄":{"ha":299,"x_min":10,"x_max":539,"o":"m 144 0 l 10 0 l 404 1000 l 539 1000 l 144 0 z "},"<":{"ha":419,"x_min":81,"x_max":560,"o":"m 444 138 l 81 282 l 122 451 l 560 599 l 504 376 l 246 376 l 242 360 l 500 360 l 444 138 z "},">":{"ha":419,"x_min":43,"x_max":522,"o":"m 158 599 l 522 454 l 481 285 l 43 138 l 99 360 l 357 360 l 361 376 l 103 376 l 158 599 z "},"%":{"ha":942,"x_min":160,"x_max":1024,"o":"m 196 747 q 230 844 208 800 q 283 919 251 888 q 358 968 315 950 q 456 986 400 986 q 545 968 511 986 q 596 918 579 950 q 613 842 613 886 q 601 747 614 799 l 579 656 q 544 560 567 604 q 488 485 521 517 q 413 435 456 453 q 314 417 369 417 q 225 435 258 417 q 176 484 192 453 q 160 560 160 515 q 174 656 161 604 l 196 747 m 850 972 l 990 972 l 332 0 l 192 0 l 850 972 m 354 600 q 357 578 349 578 q 371 600 365 578 l 421 803 q 418 825 426 825 q 404 803 410 825 l 354 600 m 606 317 q 640 413 618 369 q 693 488 661 457 q 767 538 725 519 q 865 556 810 556 q 956 538 921 556 q 1007 488 990 519 q 1024 412 1024 456 q 1011 317 1024 368 l 989 225 q 953 130 976 174 q 898 54 931 86 q 822 4 865 22 q 724 -14 779 -14 q 635 4 668 -14 q 585 53 601 22 q 570 129 569 85 q 583 225 571 174 l 606 317 m 764 169 q 767 147 758 147 q 781 169 775 147 l 831 372 q 828 394 836 394 q 814 372 819 394 l 764 169 z "},"‰":{"ha":1364,"x_min":160,"x_max":1446,"o":"m 196 747 q 230 844 208 800 q 283 919 251 888 q 358 968 315 950 q 456 986 400 986 q 545 968 511 986 q 596 918 579 950 q 613 842 613 886 q 601 747 614 799 l 579 656 q 544 560 567 604 q 488 485 521 517 q 413 435 456 453 q 314 417 369 417 q 225 435 258 417 q 176 484 192 453 q 160 560 160 515 q 174 656 161 604 l 196 747 m 850 972 l 990 972 l 332 0 l 192 0 l 850 972 m 354 600 q 357 578 349 578 q 371 600 365 578 l 421 803 q 418 825 426 825 q 404 803 410 825 l 354 600 m 606 317 q 640 413 618 369 q 693 488 661 457 q 767 538 725 519 q 865 556 810 556 q 956 538 921 556 q 1007 488 990 519 q 1024 412 1024 456 q 1011 317 1024 368 l 989 225 q 953 130 976 174 q 898 54 931 86 q 822 4 865 22 q 724 -14 779 -14 q 635 4 668 -14 q 585 53 601 22 q 570 129 569 85 q 583 225 571 174 l 606 317 m 1028 317 q 1062 413 1040 369 q 1115 488 1083 457 q 1190 538 1147 519 q 1288 556 1232 556 q 1378 538 1343 556 q 1429 488 1413 519 q 1446 412 1446 456 q 1433 317 1446 368 l 1411 225 q 1376 130 1399 174 q 1320 54 1353 86 q 1244 4 1288 22 q 1146 -14 1201 -14 q 1057 4 1090 -14 q 1008 53 1024 22 q 992 129 992 85 q 1006 225 993 174 l 1028 317 m 764 169 q 767 147 758 147 q 781 169 775 147 l 831 372 q 828 394 836 394 q 814 372 819 394 l 764 169 m 1186 169 q 1189 147 1181 147 q 1203 169 1197 147 l 1253 372 q 1250 394 1258 394 q 1236 372 1242 394 l 1186 169 z "},"«":{"ha":836,"x_min":81,"x_max":983,"o":"m 438 110 l 81 283 l 122 450 l 567 626 l 508 396 l 364 361 l 363 358 l 489 324 l 438 110 m 854 110 l 497 283 l 539 450 l 983 626 l 925 396 l 781 361 l 779 358 l 906 324 l 854 110 z "},"»":{"ha":835,"x_min":36,"x_max":939,"o":"m 582 626 l 939 453 l 897 286 l 453 110 l 511 340 l 656 375 l 657 378 l 531 413 l 582 626 m 165 626 l 522 453 l 481 286 l 36 110 l 95 340 l 239 375 l 240 378 l 114 413 l 165 626 z "},"^":{"ha":396,"x_min":172,"x_max":550,"o":"m 369 653 l 433 906 l 417 906 l 353 653 l 172 653 l 335 972 l 549 972 l 550 653 l 369 653 z "},"*":{"ha":542,"x_min":203,"x_max":725,"o":"m 356 749 l 203 772 l 301 944 l 425 869 l 438 1028 l 618 1028 l 551 869 l 713 944 l 725 772 l 560 749 l 647 636 l 475 531 l 439 675 l 332 531 l 213 638 l 356 749 z "},"#":{"ha":635,"x_min":83,"x_max":793,"o":"m 200 300 l 83 300 l 121 453 l 246 453 l 267 521 l 139 521 l 176 674 l 314 674 l 406 974 l 572 974 l 481 674 l 511 674 l 603 974 l 769 974 l 678 674 l 793 674 l 756 521 l 631 521 l 610 453 l 739 453 l 700 300 l 563 300 l 471 0 l 306 0 l 397 300 l 365 300 l 274 0 l 108 0 l 200 300 m 443 453 l 464 521 l 433 521 l 413 453 l 443 453 z "},"[":{"ha":351,"x_min":-44,"x_max":592,"o":"m -44 -215 l 258 1000 l 592 1000 l 538 783 l 454 783 l 260 1 l 343 1 l 289 -215 l -44 -215 z "},"]":{"ha":351,"x_min":-44,"x_max":592,"o":"m 592 1000 l 289 -215 l -44 -215 l 10 1 l 93 1 l 288 783 l 204 783 l 258 1000 l 592 1000 z "},"(":{"ha":319,"x_min":39,"x_max":560,"o":"m 40 -243 q 54 94 39 -60 q 106 393 69 249 q 203 691 142 538 q 358 1028 264 844 l 560 1000 q 438 669 486 814 q 356 393 389 525 q 325 258 339 326 q 299 115 311 189 q 276 -40 286 42 q 256 -215 265 -122 l 40 -243 z "},")":{"ha":319,"x_min":-44,"x_max":476,"o":"m 475 1028 q 461 690 476 844 q 410 392 446 536 q 313 94 374 247 q 157 -243 251 -60 l -44 -215 q 78 115 29 -29 q 160 392 126 260 q 190 527 176 458 q 217 669 204 596 q 240 825 229 743 q 260 1000 250 907 l 475 1028 z "},"{":{"ha":483,"x_min":78,"x_max":731,"o":"m 500 578 q 476 508 490 540 q 442 451 463 475 q 394 415 422 428 q 326 401 365 401 l 322 385 q 383 372 361 385 q 413 335 404 358 q 420 278 422 311 q 408 208 418 246 l 379 93 q 367 32 369 56 q 373 -4 365 8 q 397 -22 381 -17 q 442 -26 414 -26 l 468 -26 l 414 -243 l 300 -243 q 127 -178 176 -243 q 110 14 78 -112 l 158 208 q 158 274 169 251 q 83 296 146 296 l 132 490 q 217 513 194 490 q 250 578 240 535 l 299 771 q 412 963 331 897 q 617 1028 493 1028 l 731 1028 l 676 811 l 650 811 q 603 806 622 811 q 571 789 585 801 q 548 753 557 776 q 529 692 539 729 l 500 578 z "},"}":{"ha":483,"x_min":-51,"x_max":596,"o":"m 179 207 q 203 277 189 244 q 237 333 217 310 q 285 370 257 357 q 353 383 314 383 l 357 400 q 297 413 318 400 q 266 450 275 426 q 259 506 257 474 q 271 576 261 539 l 300 692 q 312 753 310 729 q 306 789 314 776 q 282 806 299 801 q 238 811 265 811 l 211 811 l 265 1028 l 379 1028 q 552 962 503 1028 q 569 771 601 897 l 521 576 q 522 511 510 533 q 596 489 533 489 l 547 294 q 462 272 485 294 q 429 207 439 250 l 381 14 q 267 -178 349 -112 q 63 -243 186 -243 l -51 -243 l 3 -26 l 29 -26 q 76 -21 57 -26 q 108 -4 94 -17 q 131 32 122 8 q 150 93 140 56 l 179 207 z "},"@":{"ha":922,"x_min":26,"x_max":1079,"o":"m 700 149 q 715 126 694 126 q 742 149 738 126 l 846 564 q 819 681 867 646 q 639 715 771 715 q 442 681 507 715 q 356 564 376 646 l 265 193 q 245 68 246 117 q 268 -8 244 19 q 344 -46 292 -36 q 482 -56 396 -56 l 433 -250 q 219 -226 304 -250 q 88 -149 133 -201 q 34 -13 42 -96 q 56 185 26 69 l 160 600 q 224 725 176 668 q 341 823 271 782 q 500 887 411 864 q 688 910 589 910 q 863 887 786 910 q 990 823 940 864 q 1060 725 1040 782 q 1063 600 1079 668 l 960 186 q 923 105 949 142 q 860 42 897 68 q 778 1 824 15 q 682 -14 732 -14 q 604 -3 639 -14 q 547 26 569 7 q 515 70 524 44 q 514 126 506 96 l 515 132 l 499 132 q 437 24 474 63 q 357 -14 400 -14 q 294 42 307 -14 q 308 204 282 97 l 390 532 q 445 633 406 593 q 531 674 485 674 q 588 644 568 674 q 606 564 608 615 l 622 564 l 649 667 l 829 667 l 700 149 m 603 481 q 594 488 600 488 q 585 476 588 488 l 521 224 q 525 210 518 210 q 536 217 529 210 l 603 481 z "},"&":{"ha":576,"x_min":54,"x_max":739,"o":"m 406 585 q 403 574 403 578 q 410 571 403 571 l 418 569 l 439 654 l 689 654 l 668 571 l 710 571 l 668 403 l 626 403 l 526 0 l 356 0 l 375 78 l 358 78 q 294 10 336 33 q 201 -14 253 -14 q 131 1 163 -14 q 80 47 99 15 q 58 127 61 78 q 71 244 54 176 l 78 271 q 103 351 89 314 q 140 417 117 389 q 194 462 163 446 q 272 478 226 478 l 276 494 q 207 511 231 494 q 175 556 183 528 q 171 622 167 585 q 185 703 175 660 l 192 729 q 304 921 224 856 q 510 986 385 986 q 688 919 636 986 q 708 729 739 853 l 696 682 l 446 682 l 463 747 q 460 769 468 769 q 446 747 451 769 l 406 585 m 368 403 q 360 399 361 403 q 356 389 358 394 l 315 225 q 318 203 310 203 q 332 225 326 203 l 376 403 l 368 403 z "},"˜":{"ha":289,"x_min":206,"x_max":522,"o":"m 521 965 q 469 826 497 869 q 406 782 442 782 q 372 790 388 782 q 340 806 356 797 l 336 808 q 313 821 324 815 q 293 826 303 826 q 261 789 269 826 l 261 788 l 206 788 l 207 790 q 259 925 229 878 q 325 972 289 972 q 356 965 340 972 q 388 950 372 958 l 392 947 q 416 935 404 940 q 438 931 428 931 q 468 965 460 931 l 469 968 l 522 968 l 521 965 z "},"+":{"ha":596,"x_min":104,"x_max":726,"o":"m 682 381 l 490 381 l 440 182 l 246 182 l 296 381 l 104 381 l 149 561 l 340 561 l 390 760 l 585 760 l 535 561 l 726 561 l 682 381 z "},"-":{"ha":351,"x_min":99,"x_max":486,"o":"m 432 363 l 99 363 l 153 579 l 486 579 l 432 363 z "},"–":{"ha":685,"x_min":99,"x_max":819,"o":"m 765 363 l 99 363 l 153 579 l 819 579 l 765 363 z "},"—":{"ha":1018,"x_min":100,"x_max":1153,"o":"m 1100 363 l 100 363 l 153 579 l 1153 579 l 1100 363 z "},"_":{"ha":421,"x_min":-37,"x_max":413,"o":"m 365 -189 l -37 -189 l 10 0 l 413 0 l 365 -189 z "},"−":{"ha":526,"x_min":104,"x_max":657,"o":"m 613 381 l 104 381 l 149 561 l 657 561 l 613 381 z "},"=":{"ha":554,"x_min":65,"x_max":724,"o":"m 678 533 l 142 533 l 188 714 l 724 714 l 678 533 m 601 228 l 65 228 l 111 408 l 647 408 l 601 228 z "},"•":{"ha":361,"x_min":117,"x_max":500,"o":"m 136 510 q 213 636 157 592 q 350 681 268 681 q 467 636 433 681 q 479 510 500 592 q 403 382 460 426 q 265 338 347 338 q 149 382 182 338 q 136 510 117 426 z "},"¿":{"ha":535,"x_min":-32,"x_max":557,"o":"m 303 604 q 454 731 335 731 q 534 698 511 731 q 542 603 557 665 q 488 510 526 542 q 390 478 449 478 q 303 604 271 478 m 518 -35 q 401 -225 486 -158 q 190 -292 317 -292 q 17 -226 67 -292 q 0 -35 -32 -161 l 3 -22 q 35 74 17 33 q 75 145 54 114 q 119 200 96 176 q 163 244 142 224 l 165 246 q 224 309 197 278 q 261 389 250 340 l 278 453 l 514 453 l 501 404 q 472 315 489 351 q 437 251 456 278 q 398 204 418 224 q 358 168 378 185 l 357 167 q 329 141 343 154 q 303 112 315 128 q 282 75 292 96 q 265 25 272 54 l 246 -53 q 249 -75 240 -75 q 263 -53 257 -75 l 300 97 l 550 97 l 518 -35 z "},"¡":{"ha":268,"x_min":-61,"x_max":419,"o":"m 165 603 q 317 728 197 728 q 397 695 375 728 q 404 600 419 663 q 351 508 389 540 q 254 476 313 476 q 165 603 135 476 m -26 -140 l 150 453 l 343 453 l 225 -140 l 189 -279 l -61 -279 l -26 -140 z "},"¶":{"ha":796,"x_min":122,"x_max":1036,"o":"m 483 -215 l 786 1000 l 1036 1000 l 733 -215 l 483 -215 m 206 -215 l 319 240 q 210 251 254 240 q 144 300 165 261 q 126 415 122 339 q 164 621 131 490 q 229 827 196 751 q 303 941 263 903 q 393 990 343 979 q 508 1000 443 1000 l 758 1000 l 456 -215 l 206 -215 z "},"©":{"ha":874,"x_min":96,"x_max":1024,"o":"m 146 549 q 216 743 174 661 q 319 879 258 825 q 463 960 381 933 q 653 986 544 986 q 849 956 771 986 q 969 867 928 925 q 1017 726 1011 810 q 997 535 1024 642 l 969 425 q 901 236 943 318 q 798 99 860 154 q 651 15 736 43 q 454 -14 567 -14 q 263 18 339 -14 q 146 111 186 50 q 101 260 106 172 q 124 461 96 349 l 146 549 m 283 407 q 266 278 265 331 q 290 194 267 226 q 358 147 313 161 q 471 132 403 132 q 590 147 538 132 q 681 194 642 161 q 747 278 719 226 q 793 407 775 331 l 832 567 q 850 695 851 643 q 826 779 849 747 q 758 825 803 811 q 646 839 714 839 q 527 825 579 839 q 437 779 475 811 q 371 695 399 747 q 324 567 343 643 l 283 407 m 524 381 q 526 358 519 358 q 540 381 536 358 l 564 474 l 786 474 l 767 394 q 731 294 753 339 q 674 219 708 250 q 592 170 640 188 q 475 153 543 153 q 367 169 407 153 q 308 217 326 186 q 290 294 289 249 q 304 394 290 339 l 350 576 q 384 677 364 632 q 438 753 404 722 q 520 801 471 785 q 642 818 569 818 q 756 801 715 818 q 813 752 796 783 q 827 676 829 721 q 811 576 825 632 l 793 501 l 571 501 l 592 590 q 589 613 597 613 q 575 590 581 613 l 524 381 z "},"¬":{"ha":676,"x_min":10,"x_max":911,"o":"m 251 972 l 911 972 l 668 0 l 10 0 l 251 972 m 474 543 l 782 903 l 346 903 l 474 543 m 626 115 l 813 858 l 494 486 l 626 115 m 107 114 l 425 486 l 292 858 l 107 114 m 138 69 l 574 69 l 446 429 l 138 69 z "},"®":{"ha":874,"x_min":61,"x_max":1054,"o":"m 146 549 q 212 743 174 661 q 306 879 250 825 q 442 960 363 933 q 632 986 522 986 q 960 875 865 986 q 1001 549 1054 764 l 971 425 q 904 236 944 318 q 803 99 864 154 q 658 15 743 43 q 454 -14 572 -14 q 142 98 224 -14 q 117 433 61 210 l 146 549 m 283 407 q 266 278 265 331 q 290 194 267 226 q 358 147 313 161 q 471 132 403 132 q 590 147 538 132 q 680 194 642 161 q 746 278 718 226 q 792 407 774 331 l 832 567 q 848 695 851 643 q 819 779 844 747 q 747 825 793 811 q 632 839 700 839 q 515 825 564 839 q 429 779 465 811 q 368 695 393 747 q 324 567 343 643 l 283 407 m 632 775 q 738 737 707 775 q 749 619 768 699 l 749 615 q 692 507 729 540 q 628 474 656 474 l 624 457 q 650 447 638 457 q 671 420 663 438 q 681 376 679 403 q 674 317 682 350 l 672 310 q 658 248 664 276 q 651 192 653 219 l 504 192 q 511 249 506 219 q 525 311 517 278 l 544 386 q 545 398 547 396 q 536 400 543 400 l 531 400 l 479 192 l 333 192 l 479 775 l 632 775 m 563 531 l 568 531 q 578 533 575 531 q 583 543 581 535 l 606 632 q 606 642 608 640 q 597 644 604 644 l 592 644 l 563 531 z "},"™":{"ha":515,"x_min":193,"x_max":749,"o":"m 407 886 l 368 886 l 293 583 l 193 583 l 268 886 l 229 886 l 251 972 l 429 972 l 407 886 m 589 972 l 536 760 l 553 760 l 606 972 l 749 972 l 651 583 l 560 583 l 621 794 l 604 794 l 538 583 l 463 583 l 499 794 l 482 794 l 440 583 l 349 583 l 446 972 l 589 972 z "},"×":{"ha":572,"x_min":94,"x_max":714,"o":"m 714 606 l 533 461 l 633 328 l 478 203 l 378 336 l 203 196 l 94 338 l 269 479 l 171 611 l 326 738 l 426 604 l 604 747 l 714 606 z "},"¦":{"ha":268,"x_min":-44,"x_max":508,"o":"m 115 426 l 258 1000 l 508 1000 l 365 426 l 115 426 m -44 -215 l 97 354 l 347 354 l 206 -215 l -44 -215 z "},"†":{"ha":574,"x_min":132,"x_max":742,"o":"m 654 972 l 589 708 l 742 708 l 688 492 l 535 492 l 413 0 l 163 0 l 285 492 l 132 492 l 186 708 l 339 708 l 404 972 l 654 972 z "},"‡":{"ha":574,"x_min":64,"x_max":751,"o":"m 654 972 l 599 750 l 751 750 l 697 533 l 544 533 l 521 439 l 674 439 l 619 222 l 467 222 l 413 0 l 163 0 l 217 222 l 64 222 l 118 439 l 271 439 l 294 533 l 142 533 l 196 750 l 349 750 l 404 972 l 654 972 z "},"›":{"ha":418,"x_min":36,"x_max":522,"o":"m 165 626 l 522 453 l 481 286 l 36 110 l 94 340 l 239 375 l 240 378 l 114 413 l 165 626 z "},"‹":{"ha":419,"x_min":81,"x_max":567,"o":"m 438 110 l 81 283 l 122 450 l 567 626 l 508 396 l 364 361 l 363 358 l 489 324 l 438 110 z "},"€":{"ha":657,"x_min":83,"x_max":861,"o":"m 481 667 l 536 667 l 494 500 l 439 500 l 432 472 l 488 472 l 443 292 l 388 292 l 385 281 q 379 239 378 254 q 385 215 381 224 q 397 205 390 207 q 407 203 403 203 q 419 205 411 203 q 435 215 426 207 q 452 239 443 224 q 468 281 461 254 l 515 472 l 765 472 l 708 244 q 584 53 678 119 q 349 -14 490 -14 q 152 52 210 -14 q 126 244 94 118 l 138 292 l 83 292 l 128 472 l 183 472 l 190 500 l 135 500 l 176 667 l 232 667 l 247 729 q 369 921 279 856 q 597 986 458 986 q 800 919 739 986 q 829 729 861 853 l 772 500 l 522 500 l 569 692 q 575 735 576 719 q 569 758 574 750 q 558 767 564 765 q 547 769 551 769 q 535 767 543 769 q 519 758 528 765 q 503 735 511 750 q 488 692 494 719 l 481 667 z "},"ˆ":{"ha":296,"x_min":204,"x_max":482,"o":"m 204 782 l 307 972 l 474 972 l 482 782 l 358 782 l 368 846 l 360 846 l 336 782 l 204 782 z "},"°":{"ha":288,"x_min":171,"x_max":514,"o":"m 229 883 q 287 978 244 942 q 396 1014 329 1014 q 488 977 463 1014 q 499 883 514 940 l 456 711 q 398 616 442 653 q 286 579 354 579 q 195 616 219 579 q 186 711 171 653 l 229 883 m 310 703 q 315 690 308 690 q 328 703 324 690 l 375 890 q 369 903 379 903 q 357 890 361 903 l 310 703 z "},"'":{"ha":200,"x_min":171,"x_max":439,"o":"m 411 889 l 324 592 l 171 592 l 231 889 l 258 1000 l 439 1000 l 411 889 z "},"\"":{"ha":397,"x_min":171,"x_max":636,"o":"m 411 889 l 324 592 l 171 592 l 231 889 l 258 1000 l 439 1000 l 411 889 m 608 889 l 521 592 l 368 592 l 428 889 l 456 1000 l 636 1000 l 608 889 z "},"‚":{"ha":254,"x_min":-31,"x_max":314,"o":"m 92 278 l 314 278 l 136 -158 l -31 -158 l 92 278 z "},"„":{"ha":493,"x_min":-31,"x_max":553,"o":"m 92 278 l 314 278 l 136 -158 l -31 -158 l 92 278 m 331 278 l 553 278 l 375 -158 l 208 -158 l 331 278 z "},"~":{"ha":472,"x_min":103,"x_max":606,"o":"m 604 567 q 538 416 578 461 q 439 371 497 371 q 381 379 410 371 q 326 397 353 388 l 318 400 q 277 414 296 408 q 243 419 258 419 q 194 379 206 419 l 194 376 l 103 376 l 104 381 q 275 574 153 574 q 328 567 301 574 q 382 550 356 560 l 390 547 q 433 535 414 540 q 469 529 453 529 q 517 567 507 529 l 517 569 l 606 569 l 604 567 z "},"´":{"ha":239,"x_min":204,"x_max":472,"o":"m 204 782 l 292 972 l 472 972 l 357 782 l 204 782 z "},"`":{"ha":333,"x_min":251,"x_max":519,"o":"m 367 782 l 251 972 l 432 972 l 519 782 l 367 782 z "},"¨":{"ha":421,"x_min":217,"x_max":642,"o":"m 228 878 q 266 952 239 925 q 350 979 293 979 q 422 951 407 979 q 425 876 436 924 q 386 802 414 829 q 301 775 358 775 q 231 802 244 775 q 228 878 217 829 m 433 878 q 472 952 444 925 q 556 979 499 979 q 627 951 613 979 q 631 876 642 924 q 592 802 619 829 q 507 775 564 775 q 436 802 450 775 q 433 878 422 829 z "},"˚":{"ha":257,"x_min":215,"x_max":479,"o":"m 229 881 q 278 955 242 931 q 367 979 314 979 q 451 953 422 979 q 465 872 479 928 q 326 775 440 775 q 243 800 271 775 q 229 881 215 825 m 304 878 q 339 843 296 843 q 390 878 382 843 q 356 911 399 911 q 304 878 313 911 z "},"ˇ":{"ha":296,"x_min":251,"x_max":529,"o":"m 529 972 l 426 782 l 260 782 l 251 972 l 375 972 l 367 908 l 375 908 l 397 972 l 529 972 z "},"˘":{"ha":357,"x_min":225,"x_max":590,"o":"m 389 972 q 407 921 376 921 q 450 972 438 921 l 590 972 q 510 825 564 868 q 374 782 457 782 q 258 825 290 782 q 251 972 225 868 l 389 972 z "},"˝":{"ha":353,"x_min":204,"x_max":586,"o":"m 204 782 l 292 972 l 431 972 l 315 782 l 204 782 m 360 782 l 447 972 l 586 972 l 471 782 l 360 782 z "},"˙":{"ha":215,"x_min":217,"x_max":436,"o":"m 228 878 q 266 952 239 925 q 351 979 293 979 q 422 951 408 979 q 425 876 436 924 q 386 802 414 829 q 301 775 358 775 q 231 802 244 775 q 228 878 217 829 z "},"˛":{"ha":244,"x_min":-29,"x_max":235,"o":"m 235 -3 l 232 -12 q 172 -38 200 -12 q 144 -96 144 -64 q 182 -131 144 -131 q 203 -129 196 -131 l 174 -247 q 130 -256 150 -254 q 92 -258 110 -258 q 0 -232 29 -258 q -29 -165 -29 -206 q -1 -92 -29 -122 q 67 -42 26 -61 q 154 -12 108 -22 q 235 -3 200 -3 z "},"¸":{"ha":288,"x_min":-54,"x_max":239,"o":"m 61 0 l 153 0 l 128 -69 q 213 -92 186 -69 q 239 -149 239 -115 q 219 -201 239 -179 q 169 -238 199 -224 q 106 -260 140 -253 q 44 -267 72 -267 q -54 -256 6 -267 l -32 -168 q 3 -172 -14 -172 q 21 -171 10 -172 q 44 -167 32 -169 q 64 -159 56 -164 q 72 -146 72 -154 q 55 -130 72 -135 q 7 -125 38 -125 l 61 0 z "},"B":{"ha":546,"x_min":10,"x_max":736,"o":"m 507 972 q 684 910 632 972 q 708 733 736 849 l 707 726 q 669 631 693 672 q 618 561 646 589 q 562 519 590 533 q 510 506 533 506 l 506 489 q 551 473 528 489 q 591 426 575 457 q 613 353 607 396 q 604 257 618 311 l 600 239 q 556 139 586 183 q 482 63 525 94 q 384 16 439 32 q 265 0 329 0 l 10 0 l 251 972 l 507 972 m 410 606 l 413 606 q 426 609 424 606 q 432 628 429 613 l 458 733 q 462 752 463 749 q 450 756 461 756 l 447 756 l 410 606 m 314 217 l 317 217 q 331 220 328 217 q 336 239 333 224 l 368 367 q 371 385 371 382 q 360 389 371 389 l 357 389 l 314 217 z "},"C":{"ha":535,"x_min":39,"x_max":739,"o":"m 317 225 q 319 203 311 203 q 333 225 328 203 l 394 472 l 644 472 l 586 244 q 471 53 556 119 q 261 -14 386 -14 q 88 52 138 -14 q 71 244 39 118 l 192 729 q 305 921 224 856 q 510 986 386 986 q 688 919 636 986 q 708 729 739 853 l 651 500 l 401 500 l 463 747 q 460 769 468 769 q 446 747 451 769 l 317 225 z "},"A":{"ha":526,"x_min":6,"x_max":703,"o":"m 703 972 l 522 0 l 272 0 l 322 200 l 306 200 l 256 0 l 6 0 l 314 972 l 703 972 m 376 417 l 406 536 l 389 536 l 360 417 l 376 417 z "},"±":{"ha":526,"x_min":10,"x_max":657,"o":"m 613 381 l 456 381 l 419 238 l 225 238 l 261 381 l 104 381 l 149 561 l 306 561 l 342 704 l 536 704 l 500 561 l 657 561 l 613 381 m 518 0 l 10 0 l 54 181 l 563 181 l 518 0 z "},"ı":{"ha":257,"x_min":11,"x_max":424,"o":"m 424 708 l 247 0 l 11 0 l 188 708 l 424 708 z "},"·":{"ha":257,"x_min":106,"x_max":390,"o":"m 138 519 q 288 644 169 644 q 368 612 346 644 q 375 517 390 579 q 322 425 360 457 q 225 393 283 393 q 138 519 106 393 z "},"ª":{"ha":311,"x_min":160,"x_max":533,"o":"m 376 865 q 374 879 381 879 q 364 865 368 879 l 350 810 l 211 810 l 224 857 q 288 962 240 924 q 404 1000 336 1000 q 503 962 472 1000 q 517 857 533 924 l 444 567 l 303 567 l 311 599 l 299 599 q 214 558 257 558 q 169 582 178 558 q 169 643 160 606 l 188 711 q 227 772 196 747 q 294 796 258 796 l 360 796 l 376 865 m 343 728 l 335 728 q 328 721 331 728 l 317 675 q 321 668 314 668 q 329 672 325 668 l 343 728 z "},"£":{"ha":549,"x_min":10,"x_max":736,"o":"m 400 453 l 611 453 l 567 278 l 350 278 q 317 217 339 250 l 593 217 l 539 0 l 10 0 l 64 217 q 92 248 81 233 q 111 278 103 263 l 79 278 l 122 453 l 164 453 l 254 815 q 524 986 296 986 q 626 969 582 986 q 697 919 671 951 q 729 838 722 886 q 721 729 736 790 l 664 500 l 428 500 l 489 747 q 486 769 494 769 q 475 757 479 769 l 400 453 z "},"º":{"ha":311,"x_min":168,"x_max":531,"o":"m 222 857 q 284 960 238 919 q 403 1000 331 1000 q 503 960 475 1000 q 515 857 531 919 l 476 701 q 413 599 461 639 q 293 558 365 558 q 194 599 219 558 q 183 701 168 639 l 222 857 m 321 693 q 325 681 317 681 q 336 693 332 681 l 378 865 q 374 878 382 878 q 363 865 367 878 l 321 693 z "},"¹":{"ha":192,"x_min":190,"x_max":428,"o":"m 190 572 l 263 858 l 258 868 l 225 868 l 256 986 l 428 986 l 325 572 l 190 572 z "},"²":{"ha":304,"x_min":158,"x_max":526,"o":"m 228 875 q 250 922 235 900 q 288 962 265 944 q 340 990 311 979 q 404 1000 369 1000 q 500 963 474 1000 q 514 875 526 925 l 508 854 q 482 788 499 813 q 447 749 465 763 q 408 729 428 735 q 372 719 389 724 l 369 719 q 344 712 356 717 q 331 696 333 707 l 329 692 l 468 692 l 438 572 l 158 572 l 181 661 q 211 727 192 704 q 272 765 231 750 l 281 769 q 325 788 308 781 q 351 803 342 796 q 364 819 360 811 q 371 839 368 826 l 375 860 q 378 877 379 874 q 372 881 376 881 q 365 877 368 881 q 358 860 361 874 l 349 819 l 214 819 l 228 875 z "},"³":{"ha":303,"x_min":165,"x_max":531,"o":"m 378 874 q 372 883 382 883 q 361 874 363 883 l 356 851 l 222 851 l 231 890 q 287 973 246 946 q 403 1000 328 1000 q 504 974 478 1000 q 515 889 531 947 l 514 883 q 474 815 501 835 q 419 793 446 794 l 417 782 q 460 758 443 782 q 465 686 476 735 l 464 681 q 410 598 449 624 q 297 572 372 572 q 193 599 221 572 q 179 682 165 626 l 189 721 l 322 721 l 317 699 q 324 689 315 689 q 335 699 333 689 l 336 707 q 339 738 343 731 q 307 746 335 746 l 293 746 l 313 826 l 328 826 q 363 834 356 826 q 376 865 371 842 l 378 874 z "},"¼":{"ha":640,"x_min":135,"x_max":736,"o":"m 269 0 l 135 0 l 529 1000 l 664 1000 l 269 0 m 190 572 l 263 858 l 258 868 l 225 868 l 256 986 l 428 986 l 325 572 l 190 572 m 736 414 l 632 0 l 497 0 l 525 107 l 383 107 l 460 414 l 594 414 l 547 226 l 554 226 l 601 414 l 736 414 z "},"¾":{"ha":724,"x_min":165,"x_max":819,"o":"m 353 0 l 218 0 l 613 1000 l 747 1000 l 353 0 m 378 874 q 372 883 382 883 q 361 874 363 883 l 356 851 l 222 851 l 231 890 q 287 973 246 946 q 403 1000 328 1000 q 504 974 478 1000 q 515 889 531 947 l 514 883 q 474 815 501 835 q 419 793 446 794 l 417 782 q 460 758 443 782 q 465 686 476 735 l 464 681 q 410 598 449 624 q 297 572 372 572 q 193 599 221 572 q 179 682 165 626 l 189 721 l 322 721 l 317 699 q 324 689 315 689 q 335 699 333 689 l 336 707 q 339 738 343 731 q 307 746 335 746 l 293 746 l 313 826 l 328 826 q 363 834 356 826 q 376 865 371 842 l 378 874 m 819 414 l 715 0 l 581 0 l 608 107 l 467 107 l 543 414 l 678 414 l 631 226 l 638 226 l 685 414 l 819 414 z "},"½":{"ha":638,"x_min":135,"x_max":718,"o":"m 269 0 l 135 0 l 529 1000 l 664 1000 l 269 0 m 190 572 l 263 858 l 258 868 l 225 868 l 256 986 l 428 986 l 325 572 l 190 572 m 419 303 q 442 350 426 328 q 480 390 457 372 q 532 417 503 407 q 596 428 561 428 q 692 390 665 428 q 706 303 718 353 l 700 282 q 674 215 690 240 q 638 176 657 190 q 600 157 619 163 q 564 147 581 151 l 561 147 q 536 140 547 144 q 522 124 525 135 l 521 119 l 660 119 l 629 0 l 350 0 l 372 89 q 403 155 383 132 q 464 193 422 178 l 472 197 q 517 216 500 208 q 542 231 533 224 q 556 247 551 239 q 563 267 560 254 l 567 288 q 569 305 571 301 q 564 308 568 308 q 556 305 560 308 q 550 288 553 301 l 540 247 l 406 247 l 419 303 z "},"¯":{"ha":324,"x_min":206,"x_max":556,"o":"m 511 788 l 206 788 l 250 968 l 556 968 l 511 788 z "},"E":{"ha":379,"x_min":10,"x_max":613,"o":"m 447 756 l 414 621 l 525 621 l 471 404 l 360 404 l 313 217 l 424 217 l 369 0 l 10 0 l 251 972 l 613 972 l 558 756 l 447 756 z "},";":{"ha":257,"x_min":-44,"x_max":408,"o":"m 156 592 q 306 717 188 717 q 386 684 364 717 q 393 589 408 651 q 340 497 378 529 q 243 465 301 465 q 156 592 124 465 m 88 224 l 304 224 l 103 -133 l -44 -133 l 88 224 z "},"ƒ":{"ha":435,"x_min":-68,"x_max":679,"o":"m 286 750 q 331 869 304 821 q 393 946 358 917 q 471 988 428 975 q 563 1000 514 1000 q 679 988 617 1000 l 629 786 q 612 789 621 788 q 593 790 603 790 q 548 779 569 790 q 519 736 526 768 l 513 708 l 610 708 l 560 506 l 461 506 l 325 -42 q 281 -162 307 -114 q 219 -239 254 -210 q 141 -280 183 -268 q 50 -292 99 -292 q -7 -289 22 -292 q -68 -281 -36 -286 l -18 -78 q 19 -82 -1 -82 q 64 -71 43 -82 q 93 -29 85 -60 l 225 506 l 169 506 l 221 708 l 276 708 l 286 750 z "},"⁴":{"ha":293,"x_min":178,"x_max":531,"o":"m 531 986 l 426 572 l 292 572 l 319 679 l 178 679 l 254 986 l 389 986 l 342 799 l 349 799 l 396 986 l 531 986 z "},"μ":{"ha":676,"x_min":10,"x_max":911,"o":"m 251 972 l 911 972 l 668 0 l 10 0 l 251 972 m 474 543 l 782 903 l 346 903 l 474 543 m 626 115 l 813 858 l 494 486 l 626 115 m 107 114 l 425 486 l 292 858 l 107 114 m 138 69 l 574 69 l 446 429 l 138 69 z "},"ð":{"ha":507,"x_min":44,"x_max":654,"o":"m 131 492 q 169 587 143 544 q 227 660 196 629 q 293 706 258 690 q 357 722 328 722 q 411 701 389 722 q 436 632 433 679 l 454 636 q 454 760 461 707 q 419 853 447 813 l 304 786 l 283 831 l 386 890 q 274 949 343 926 l 307 1000 q 475 940 408 981 l 585 1004 l 604 958 l 519 910 q 630 734 606 842 q 618 483 654 626 l 554 225 q 514 130 542 174 q 447 54 486 86 q 354 4 407 22 q 239 -14 301 -14 q 141 1 181 -14 q 78 44 101 17 q 50 109 56 71 q 56 192 44 147 l 131 492 m 297 211 q 300 189 292 189 q 314 211 308 189 l 385 497 q 382 519 390 519 q 368 497 374 519 l 297 211 z "},"ß":{"ha":546,"x_min":10,"x_max":736,"o":"m 190 726 q 291 907 219 842 q 488 972 363 972 l 507 972 q 685 910 633 972 q 708 733 736 849 l 707 726 q 669 631 693 672 q 618 561 646 589 q 562 519 590 533 q 510 506 533 506 l 506 489 q 551 473 528 489 q 591 426 575 457 q 613 353 607 396 q 604 257 618 311 l 600 239 q 490 63 572 126 q 282 0 408 0 l 276 0 l 329 217 l 335 217 q 347 228 343 217 q 357 260 351 239 l 379 346 q 384 375 382 361 q 378 389 386 389 l 372 389 l 426 606 l 432 606 q 444 617 440 606 q 454 649 449 629 l 474 728 q 474 751 479 747 q 464 756 468 756 l 461 756 q 451 751 457 756 q 440 728 446 747 l 260 0 l 10 0 l 190 726 z "},"¤":{"ha":676,"x_min":10,"x_max":911,"o":"m 251 972 l 911 972 l 668 0 l 10 0 l 251 972 m 474 543 l 782 903 l 346 903 l 474 543 m 626 115 l 813 858 l 494 486 l 626 115 m 107 114 l 425 486 l 292 858 l 107 114 m 138 69 l 574 69 l 446 429 l 138 69 z "},"À":{"ha":526,"x_min":6,"x_max":703,"o":"m 703 972 l 522 0 l 272 0 l 322 200 l 306 200 l 256 0 l 6 0 l 314 972 l 703 972 m 376 417 l 406 536 l 389 536 l 360 417 l 376 417 m 432 1028 l 317 1218 l 497 1218 l 585 1028 l 432 1028 z "},"Á":{"ha":526,"x_min":6,"x_max":703,"o":"m 703 972 l 522 0 l 272 0 l 322 200 l 306 200 l 256 0 l 6 0 l 314 972 l 703 972 m 376 417 l 406 536 l 389 536 l 360 417 l 376 417 m 435 1028 l 522 1218 l 703 1218 l 588 1028 l 435 1028 z "},"Â":{"ha":526,"x_min":6,"x_max":703,"o":"m 703 972 l 522 0 l 272 0 l 322 200 l 306 200 l 256 0 l 6 0 l 314 972 l 703 972 m 376 417 l 406 536 l 389 536 l 360 417 l 376 417 m 372 1026 l 475 1217 l 642 1217 l 650 1026 l 526 1026 l 536 1090 l 528 1090 l 504 1026 l 372 1026 z "},"Ã":{"ha":526,"x_min":6,"x_max":703,"o":"m 703 972 l 522 0 l 272 0 l 322 200 l 306 200 l 256 0 l 6 0 l 314 972 l 703 972 m 376 417 l 406 536 l 389 536 l 360 417 l 376 417 m 690 1211 q 639 1072 667 1115 q 575 1028 611 1028 q 541 1035 557 1028 q 510 1051 525 1043 l 506 1054 q 483 1067 493 1061 q 463 1072 472 1072 q 431 1035 439 1072 l 431 1033 l 375 1033 l 376 1036 q 428 1171 399 1124 q 494 1218 458 1218 q 526 1211 510 1218 q 557 1196 542 1204 l 561 1193 q 585 1181 574 1186 q 607 1176 597 1176 q 638 1211 629 1176 l 639 1214 l 692 1214 l 690 1211 z "},"Ä":{"ha":526,"x_min":6,"x_max":753,"o":"m 703 972 l 522 0 l 272 0 l 322 200 l 306 200 l 256 0 l 6 0 l 314 972 l 703 972 m 376 417 l 406 536 l 389 536 l 360 417 l 376 417 m 339 1124 q 377 1198 350 1171 q 461 1225 404 1225 q 533 1197 518 1225 q 536 1122 547 1169 q 497 1048 525 1075 q 413 1021 469 1021 q 342 1048 356 1021 q 339 1124 328 1075 m 544 1124 q 583 1198 556 1171 q 667 1225 610 1225 q 738 1197 724 1225 q 742 1122 753 1169 q 703 1048 731 1075 q 618 1021 675 1021 q 547 1048 561 1021 q 544 1124 533 1075 z "},"Å":{"ha":526,"x_min":6,"x_max":703,"o":"m 703 972 l 522 0 l 272 0 l 322 200 l 306 200 l 256 0 l 6 0 l 314 972 l 703 972 m 376 417 l 406 536 l 389 536 l 360 417 l 376 417 m 419 1126 q 468 1201 432 1176 q 557 1225 504 1225 q 641 1199 613 1225 q 656 1118 669 1174 q 517 1021 631 1021 q 433 1046 461 1021 q 419 1126 406 1071 m 494 1124 q 529 1089 486 1089 q 581 1124 572 1089 q 546 1157 589 1157 q 494 1124 503 1157 z "},"Æ":{"ha":642,"x_min":6,"x_max":875,"o":"m 710 756 l 676 621 l 788 621 l 733 404 l 622 404 l 576 217 l 686 217 l 633 0 l 272 0 l 322 200 l 306 200 l 256 0 l 6 0 l 314 972 l 875 972 l 821 756 l 710 756 m 376 417 l 406 536 l 389 536 l 360 417 l 376 417 z "},"Ç":{"ha":535,"x_min":39,"x_max":739,"o":"m 317 225 q 319 203 311 203 q 333 225 328 203 l 394 472 l 644 472 l 586 244 q 471 53 556 119 q 261 -14 386 -14 q 88 52 138 -14 q 71 244 39 118 l 192 729 q 305 921 224 856 q 510 986 386 986 q 688 919 636 986 q 708 729 739 853 l 651 500 l 401 500 l 463 747 q 460 769 468 769 q 446 747 451 769 l 317 225 m 218 0 l 310 0 l 285 -69 q 369 -92 343 -69 q 396 -149 396 -115 q 376 -201 396 -179 q 326 -238 356 -224 q 263 -260 297 -253 q 201 -267 229 -267 q 103 -256 163 -267 l 125 -168 q 160 -172 143 -172 q 178 -171 167 -172 q 201 -167 189 -169 q 221 -159 213 -164 q 229 -146 229 -154 q 212 -130 229 -135 q 164 -125 194 -125 l 218 0 z "},"Ð":{"ha":564,"x_min":39,"x_max":767,"o":"m 536 972 q 714 912 661 972 q 736 729 767 851 l 615 243 q 502 60 585 119 q 294 0 419 0 l 39 0 l 139 403 l 110 403 l 150 564 l 179 564 l 281 972 l 536 972 m 429 564 l 442 564 l 401 403 l 390 403 l 343 217 l 346 217 q 358 220 356 217 q 364 239 361 224 l 488 733 q 491 752 492 749 q 481 756 490 756 l 478 756 l 429 564 z "},"Đ":{"ha":564,"x_min":39,"x_max":767,"o":"m 536 972 q 714 912 661 972 q 736 729 767 851 l 615 243 q 502 60 585 119 q 294 0 419 0 l 39 0 l 139 403 l 110 403 l 150 564 l 179 564 l 281 972 l 536 972 m 429 564 l 442 564 l 401 403 l 390 403 l 343 217 l 346 217 q 358 220 356 217 q 364 239 361 224 l 488 733 q 491 752 492 749 q 481 756 490 756 l 478 756 l 429 564 z "},"È":{"ha":379,"x_min":10,"x_max":613,"o":"m 447 756 l 414 621 l 525 621 l 471 404 l 360 404 l 313 217 l 424 217 l 369 0 l 10 0 l 251 972 l 613 972 l 558 756 l 447 756 m 357 1028 l 242 1218 l 422 1218 l 510 1028 l 357 1028 z "},"É":{"ha":379,"x_min":10,"x_max":628,"o":"m 447 756 l 414 621 l 525 621 l 471 404 l 360 404 l 313 217 l 424 217 l 369 0 l 10 0 l 251 972 l 613 972 l 558 756 l 447 756 m 360 1028 l 447 1218 l 628 1218 l 513 1028 l 360 1028 z "},"Ê":{"ha":379,"x_min":10,"x_max":613,"o":"m 447 756 l 414 621 l 525 621 l 471 404 l 360 404 l 313 217 l 424 217 l 369 0 l 10 0 l 251 972 l 613 972 l 558 756 l 447 756 m 297 1026 l 400 1217 l 567 1217 l 575 1026 l 451 1026 l 461 1090 l 453 1090 l 429 1026 l 297 1026 z "},"Ë":{"ha":379,"x_min":10,"x_max":678,"o":"m 447 756 l 414 621 l 525 621 l 471 404 l 360 404 l 313 217 l 424 217 l 369 0 l 10 0 l 251 972 l 613 972 l 558 756 l 447 756 m 264 1124 q 302 1198 275 1171 q 386 1225 329 1225 q 458 1197 443 1225 q 461 1122 472 1169 q 422 1048 450 1075 q 338 1021 394 1021 q 267 1048 281 1021 q 264 1124 253 1075 m 469 1124 q 508 1198 481 1171 q 592 1225 535 1225 q 663 1197 649 1225 q 667 1122 678 1169 q 628 1048 656 1075 q 543 1021 600 1021 q 472 1048 486 1021 q 469 1124 458 1075 z "},"Ì":{"ha":268,"x_min":10,"x_max":501,"o":"m 501 972 l 260 0 l 10 0 l 251 972 l 501 972 m 304 1028 l 189 1218 l 369 1218 l 457 1028 l 304 1028 z "},"Í":{"ha":268,"x_min":10,"x_max":575,"o":"m 501 972 l 260 0 l 10 0 l 251 972 l 501 972 m 307 1028 l 394 1218 l 575 1218 l 460 1028 l 307 1028 z "},"Î":{"ha":268,"x_min":10,"x_max":522,"o":"m 501 972 l 260 0 l 10 0 l 251 972 l 501 972 m 244 1026 l 347 1217 l 514 1217 l 522 1026 l 399 1026 l 408 1090 l 400 1090 l 376 1026 l 244 1026 z "},"Ï":{"ha":268,"x_min":10,"x_max":625,"o":"m 501 972 l 260 0 l 10 0 l 251 972 l 501 972 m 211 1124 q 249 1198 222 1171 q 333 1225 276 1225 q 405 1197 390 1225 q 408 1122 419 1169 q 369 1048 397 1075 q 285 1021 342 1021 q 214 1048 228 1021 q 211 1124 200 1075 m 417 1124 q 455 1198 428 1171 q 539 1225 482 1225 q 610 1197 596 1225 q 614 1122 625 1169 q 575 1048 603 1075 q 490 1021 547 1021 q 419 1048 433 1021 q 417 1124 406 1075 z "},"Ł":{"ha":375,"x_min":10,"x_max":501,"o":"m 501 972 l 313 217 l 424 217 l 371 0 l 10 0 l 251 972 l 501 972 m 468 510 l 76 381 l 58 532 l 451 661 l 468 510 z "},"Ñ":{"ha":557,"x_min":10,"x_max":790,"o":"m 790 972 l 549 0 l 281 0 l 349 528 l 335 528 l 260 0 l 10 0 l 251 972 l 519 972 l 457 439 l 471 439 l 540 972 l 790 972 m 708 1211 q 657 1072 685 1115 q 593 1028 629 1028 q 559 1035 575 1028 q 528 1051 543 1043 l 524 1054 q 501 1067 511 1061 q 481 1072 490 1072 q 449 1035 457 1072 l 449 1033 l 393 1033 l 394 1036 q 447 1171 417 1124 q 513 1218 476 1218 q 544 1211 528 1218 q 575 1196 560 1204 l 579 1193 q 603 1181 592 1186 q 625 1176 615 1176 q 656 1211 647 1176 l 657 1214 l 710 1214 l 708 1211 z "},"Ò":{"ha":535,"x_min":39,"x_max":739,"o":"m 192 729 q 305 921 224 856 q 510 986 386 986 q 688 919 636 986 q 708 729 739 853 l 588 244 q 472 53 556 119 q 261 -14 388 -14 q 88 52 138 -14 q 71 244 39 118 l 192 729 m 317 225 q 319 203 311 203 q 333 225 328 203 l 463 747 q 460 769 468 769 q 446 747 451 769 l 317 225 m 440 1028 l 325 1218 l 506 1218 l 593 1028 l 440 1028 z "},"Ó":{"ha":535,"x_min":39,"x_max":739,"o":"m 192 729 q 305 921 224 856 q 510 986 386 986 q 688 919 636 986 q 708 729 739 853 l 588 244 q 472 53 556 119 q 261 -14 388 -14 q 88 52 138 -14 q 71 244 39 118 l 192 729 m 317 225 q 319 203 311 203 q 333 225 328 203 l 463 747 q 460 769 468 769 q 446 747 451 769 l 317 225 m 443 1028 l 531 1218 l 711 1218 l 596 1028 l 443 1028 z "},"Ô":{"ha":535,"x_min":39,"x_max":739,"o":"m 192 729 q 305 921 224 856 q 510 986 386 986 q 688 919 636 986 q 708 729 739 853 l 588 244 q 472 53 556 119 q 261 -14 388 -14 q 88 52 138 -14 q 71 244 39 118 l 192 729 m 317 225 q 319 203 311 203 q 333 225 328 203 l 463 747 q 460 769 468 769 q 446 747 451 769 l 317 225 m 381 1026 l 483 1217 l 650 1217 l 658 1026 l 535 1026 l 544 1090 l 536 1090 l 513 1026 l 381 1026 z "},"Õ":{"ha":535,"x_min":39,"x_max":739,"o":"m 192 729 q 305 921 224 856 q 510 986 386 986 q 688 919 636 986 q 708 729 739 853 l 588 244 q 472 53 556 119 q 261 -14 388 -14 q 88 52 138 -14 q 71 244 39 118 l 192 729 m 317 225 q 319 203 311 203 q 333 225 328 203 l 463 747 q 460 769 468 769 q 446 747 451 769 l 317 225 m 699 1211 q 647 1072 675 1115 q 583 1028 619 1028 q 549 1035 565 1028 q 518 1051 533 1043 l 514 1054 q 491 1067 501 1061 q 471 1072 481 1072 q 439 1035 447 1072 l 439 1033 l 383 1033 l 385 1036 q 437 1171 407 1124 q 503 1218 467 1218 q 534 1211 518 1218 q 565 1196 550 1204 l 569 1193 q 594 1181 582 1186 q 615 1176 606 1176 q 646 1211 638 1176 l 647 1214 l 700 1214 l 699 1211 z "},"Ö":{"ha":535,"x_min":39,"x_max":761,"o":"m 192 729 q 305 921 224 856 q 510 986 386 986 q 688 919 636 986 q 708 729 739 853 l 588 244 q 472 53 556 119 q 261 -14 388 -14 q 88 52 138 -14 q 71 244 39 118 l 192 729 m 317 225 q 319 203 311 203 q 333 225 328 203 l 463 747 q 460 769 468 769 q 446 747 451 769 l 317 225 m 347 1124 q 385 1198 358 1171 q 469 1225 413 1225 q 541 1197 526 1225 q 544 1122 556 1169 q 506 1048 533 1075 q 421 1021 478 1021 q 350 1048 364 1021 q 347 1124 336 1075 m 553 1124 q 591 1198 564 1171 q 675 1225 618 1225 q 747 1197 732 1225 q 750 1122 761 1169 q 711 1048 739 1075 q 626 1021 683 1021 q 556 1048 569 1021 q 553 1124 542 1075 z "},"Ø":{"ha":535,"x_min":13,"x_max":767,"o":"m 192 729 q 305 921 224 856 q 510 986 386 986 q 682 925 629 986 l 726 986 l 767 964 l 707 882 q 708 729 731 819 l 588 244 q 472 53 556 119 q 261 -14 388 -14 q 94 44 144 -14 l 53 -14 l 13 8 l 69 88 q 71 244 46 149 l 192 729 m 392 526 l 417 561 l 463 747 q 460 769 468 769 q 446 747 451 769 l 392 526 m 317 225 q 319 203 311 203 q 333 225 328 203 l 388 444 l 363 410 l 317 225 z "},"Œ":{"ha":646,"x_min":42,"x_max":879,"o":"m 714 756 l 681 621 l 792 621 l 738 404 l 626 404 l 579 217 l 690 217 l 636 0 l 264 0 q 91 66 140 0 q 74 258 42 132 l 188 715 q 301 907 219 842 q 506 972 382 972 l 879 972 l 825 756 l 714 756 m 318 239 q 325 217 314 217 l 329 217 l 464 756 l 460 756 q 442 733 447 756 l 318 239 z "},"Š":{"ha":535,"x_min":39,"x_max":739,"o":"m 436 639 l 463 747 q 460 769 468 769 q 446 747 451 769 l 426 669 q 422 644 422 654 q 430 623 422 633 q 456 599 438 613 q 510 563 475 585 l 542 542 q 590 499 572 522 q 613 443 607 475 q 613 367 618 411 q 592 263 607 324 l 586 244 q 472 53 556 119 q 261 -14 388 -14 q 88 52 136 -14 q 71 244 39 118 l 93 333 l 343 333 l 317 225 q 319 203 311 203 q 332 224 328 203 l 353 306 q 357 331 357 321 q 350 350 357 340 q 326 372 343 360 q 279 406 310 385 l 242 431 q 192 476 210 451 q 168 533 174 500 q 168 611 163 567 q 189 717 174 656 l 196 743 q 305 923 224 860 q 510 986 386 986 q 687 919 635 986 q 707 729 739 853 l 685 639 l 436 639 m 710 1218 l 607 1028 l 440 1028 l 432 1218 l 556 1218 l 547 1154 l 556 1154 l 578 1218 l 710 1218 z "},"Ù":{"ha":535,"x_min":39,"x_max":769,"o":"m 503 972 l 317 225 q 319 203 311 203 q 333 225 328 203 l 519 972 l 769 972 l 588 244 q 472 53 557 119 q 261 -14 388 -14 q 88 52 136 -14 q 71 244 39 118 l 253 972 l 503 972 m 440 1028 l 325 1218 l 506 1218 l 593 1028 l 440 1028 z "},"Ú":{"ha":535,"x_min":39,"x_max":769,"o":"m 503 972 l 317 225 q 319 203 311 203 q 333 225 328 203 l 519 972 l 769 972 l 588 244 q 472 53 557 119 q 261 -14 388 -14 q 88 52 136 -14 q 71 244 39 118 l 253 972 l 503 972 m 443 1028 l 531 1218 l 711 1218 l 596 1028 l 443 1028 z "},"Û":{"ha":535,"x_min":39,"x_max":769,"o":"m 503 972 l 317 225 q 319 203 311 203 q 333 225 328 203 l 519 972 l 769 972 l 588 244 q 472 53 557 119 q 261 -14 388 -14 q 88 52 136 -14 q 71 244 39 118 l 253 972 l 503 972 m 381 1026 l 483 1217 l 650 1217 l 658 1026 l 535 1026 l 544 1090 l 536 1090 l 513 1026 l 381 1026 z "},"Ü":{"ha":535,"x_min":39,"x_max":769,"o":"m 503 972 l 317 225 q 319 203 311 203 q 333 225 328 203 l 519 972 l 769 972 l 588 244 q 472 53 557 119 q 261 -14 388 -14 q 88 52 136 -14 q 71 244 39 118 l 253 972 l 503 972 m 347 1124 q 385 1198 358 1171 q 469 1225 413 1225 q 541 1197 526 1225 q 544 1122 556 1169 q 506 1048 533 1075 q 421 1021 478 1021 q 350 1048 364 1021 q 347 1124 336 1075 m 553 1124 q 591 1198 564 1171 q 675 1225 618 1225 q 747 1197 732 1225 q 750 1122 761 1169 q 711 1048 739 1075 q 626 1021 683 1021 q 556 1048 569 1021 q 553 1124 542 1075 z "},"Ÿ":{"ha":526,"x_min":136,"x_max":764,"o":"m 497 972 l 407 607 l 424 607 l 514 972 l 764 972 l 451 264 l 386 0 l 136 0 l 201 264 l 247 972 l 497 972 m 342 1124 q 380 1198 353 1171 q 464 1225 407 1225 q 535 1197 521 1225 q 539 1122 550 1169 q 500 1048 528 1075 q 415 1021 472 1021 q 344 1048 358 1021 q 342 1124 331 1075 m 547 1124 q 585 1198 558 1171 q 669 1225 613 1225 q 741 1197 726 1225 q 744 1122 756 1169 q 706 1048 733 1075 q 621 1021 678 1021 q 550 1048 564 1021 q 547 1124 536 1075 z "},"Ý":{"ha":526,"x_min":136,"x_max":764,"o":"m 497 972 l 407 607 l 424 607 l 514 972 l 764 972 l 451 264 l 386 0 l 136 0 l 201 264 l 247 972 l 497 972 m 438 1028 l 525 1218 l 706 1218 l 590 1028 l 438 1028 z "},"Ž":{"ha":471,"x_min":6,"x_max":693,"o":"m 693 972 l 639 754 l 318 229 l 325 217 l 521 217 l 467 0 l 6 0 l 60 217 l 382 743 l 374 756 l 207 756 l 261 972 l 693 972 m 676 1218 l 574 1028 l 407 1028 l 399 1218 l 522 1218 l 514 1154 l 522 1154 l 544 1218 l 676 1218 z "},"ﬁ":{"ha":649,"x_min":56,"x_max":876,"o":"m 243 750 q 288 869 261 821 q 349 946 314 917 q 427 988 385 975 q 518 1000 469 1000 q 636 988 574 1000 l 586 786 q 569 789 578 788 q 549 790 560 790 q 504 779 525 790 q 475 736 483 768 l 468 708 l 567 708 l 517 506 l 418 506 l 292 0 l 56 0 l 182 506 l 126 506 l 178 708 l 233 708 l 243 750 m 608 860 q 663 945 624 918 q 761 972 703 972 q 848 945 819 972 q 861 860 876 918 q 806 774 846 801 q 707 747 765 747 q 621 774 649 747 q 608 860 593 801 m 815 708 l 639 0 l 403 0 l 579 708 l 815 708 z "},"ﬂ":{"ha":654,"x_min":56,"x_max":894,"o":"m 243 750 q 288 869 261 821 q 349 946 314 917 q 427 988 385 975 q 518 1000 469 1000 q 636 988 574 1000 l 586 786 q 569 789 578 788 q 549 790 560 790 q 504 779 525 790 q 475 736 483 768 l 468 708 l 567 708 l 517 506 l 418 506 l 292 0 l 56 0 l 182 506 l 126 506 l 178 708 l 233 708 l 243 750 m 658 1000 l 894 1000 l 644 0 l 408 0 l 658 1000 z "},"à":{"ha":507,"x_min":25,"x_max":646,"o":"m 385 497 q 382 519 390 519 q 368 497 374 519 l 346 404 l 110 404 l 129 483 q 237 659 157 596 q 431 722 317 722 q 595 658 544 722 q 618 483 646 594 l 497 0 l 261 0 l 275 53 l 269 53 q 199 2 233 18 q 132 -14 164 -14 q 51 25 76 -14 q 40 126 25 64 l 69 242 q 94 297 76 271 q 136 341 113 322 q 189 371 160 360 q 249 382 218 382 l 357 382 l 385 497 m 328 268 l 318 268 q 308 257 313 268 l 290 181 q 294 169 288 169 q 306 176 299 169 l 328 268 m 358 764 l 243 954 l 424 954 l 511 764 l 358 764 z "},"á":{"ha":507,"x_min":25,"x_max":646,"o":"m 385 497 q 382 519 390 519 q 368 497 374 519 l 346 404 l 110 404 l 129 483 q 237 659 157 596 q 431 722 317 722 q 595 658 544 722 q 618 483 646 594 l 497 0 l 261 0 l 275 53 l 269 53 q 199 2 233 18 q 132 -14 164 -14 q 51 25 76 -14 q 40 126 25 64 l 69 242 q 94 297 76 271 q 136 341 113 322 q 189 371 160 360 q 249 382 218 382 l 357 382 l 385 497 m 328 268 l 318 268 q 308 257 313 268 l 290 181 q 294 169 288 169 q 306 176 299 169 l 328 268 m 361 764 l 449 954 l 629 954 l 514 764 l 361 764 z "},"â":{"ha":507,"x_min":25,"x_max":646,"o":"m 385 497 q 382 519 390 519 q 368 497 374 519 l 346 404 l 110 404 l 129 483 q 237 659 157 596 q 431 722 317 722 q 595 658 544 722 q 618 483 646 594 l 497 0 l 261 0 l 275 53 l 269 53 q 199 2 233 18 q 132 -14 164 -14 q 51 25 76 -14 q 40 126 25 64 l 69 242 q 94 297 76 271 q 136 341 113 322 q 189 371 160 360 q 249 382 218 382 l 357 382 l 385 497 m 328 268 l 318 268 q 308 257 313 268 l 290 181 q 294 169 288 169 q 306 176 299 169 l 328 268 m 299 763 l 401 953 l 568 953 l 576 763 l 453 763 l 463 826 l 454 826 l 431 763 l 299 763 z "},"ã":{"ha":507,"x_min":25,"x_max":646,"o":"m 385 497 q 382 519 390 519 q 368 497 374 519 l 346 404 l 110 404 l 129 483 q 237 659 157 596 q 431 722 317 722 q 595 658 544 722 q 618 483 646 594 l 497 0 l 261 0 l 275 53 l 269 53 q 199 2 233 18 q 132 -14 164 -14 q 51 25 76 -14 q 40 126 25 64 l 69 242 q 94 297 76 271 q 136 341 113 322 q 189 371 160 360 q 249 382 218 382 l 357 382 l 385 497 m 328 268 l 318 268 q 308 257 313 268 l 290 181 q 294 169 288 169 q 306 176 299 169 l 328 268 m 617 947 q 565 808 593 851 q 501 764 538 764 q 467 772 483 764 q 436 788 451 779 l 432 790 q 409 803 419 797 q 389 808 399 808 q 357 771 365 808 l 357 769 l 301 769 l 303 772 q 355 907 325 860 q 421 954 385 954 q 452 947 436 954 q 483 932 468 940 l 488 929 q 512 917 500 922 q 533 913 524 913 q 564 947 556 913 l 565 950 l 618 950 l 617 947 z "},"ä":{"ha":507,"x_min":25,"x_max":679,"o":"m 385 497 q 382 519 390 519 q 368 497 374 519 l 346 404 l 110 404 l 129 483 q 237 659 157 596 q 431 722 317 722 q 595 658 544 722 q 618 483 646 594 l 497 0 l 261 0 l 275 53 l 269 53 q 199 2 233 18 q 132 -14 164 -14 q 51 25 76 -14 q 40 126 25 64 l 69 242 q 94 297 76 271 q 136 341 113 322 q 189 371 160 360 q 249 382 218 382 l 357 382 l 385 497 m 328 268 l 318 268 q 308 257 313 268 l 290 181 q 294 169 288 169 q 306 176 299 169 l 328 268 m 265 860 q 303 934 276 907 q 388 961 331 961 q 459 933 444 961 q 463 858 474 906 q 424 784 451 811 q 339 757 396 757 q 268 784 282 757 q 265 860 254 811 m 471 860 q 509 934 482 907 q 593 961 536 961 q 665 933 650 961 q 668 858 679 906 q 629 784 657 811 q 544 757 601 757 q 474 784 488 757 q 471 860 460 811 z "},"å":{"ha":507,"x_min":25,"x_max":646,"o":"m 385 497 q 382 519 390 519 q 368 497 374 519 l 346 404 l 110 404 l 129 483 q 237 659 157 596 q 431 722 317 722 q 595 658 544 722 q 618 483 646 594 l 497 0 l 261 0 l 275 53 l 269 53 q 199 2 233 18 q 132 -14 164 -14 q 51 25 76 -14 q 40 126 25 64 l 69 242 q 94 297 76 271 q 136 341 113 322 q 189 371 160 360 q 249 382 218 382 l 357 382 l 385 497 m 328 268 l 318 268 q 308 257 313 268 l 290 181 q 294 169 288 169 q 306 176 299 169 l 328 268 m 346 863 q 394 937 358 913 q 483 961 431 961 q 567 935 539 961 q 582 854 596 910 q 443 757 557 757 q 360 782 388 757 q 346 863 332 807 m 421 860 q 456 825 413 825 q 507 860 499 825 q 472 893 515 893 q 421 860 429 893 z "},"æ":{"ha":760,"x_min":25,"x_max":899,"o":"m 386 497 q 383 519 392 519 q 369 497 375 519 l 346 404 l 110 404 l 129 483 q 237 659 157 596 q 431 722 317 722 q 493 715 467 722 q 542 696 519 708 l 558 696 q 617 715 588 708 q 683 722 647 722 q 848 658 797 722 q 871 483 899 594 l 825 299 l 572 299 l 550 211 q 553 189 546 189 q 567 211 563 189 l 582 271 l 818 271 l 807 225 q 697 50 779 114 q 500 -14 614 -14 q 378 16 422 -14 q 322 101 335 46 l 306 101 q 217 13 260 40 q 132 -14 174 -14 q 51 25 76 -14 q 40 126 25 64 l 69 242 q 94 297 76 271 q 136 341 113 322 q 189 371 160 360 q 249 382 218 382 l 357 382 l 386 497 m 604 424 l 621 424 l 639 497 q 636 519 644 519 q 622 497 628 519 l 604 424 m 329 268 l 319 268 q 310 257 313 268 l 290 181 q 294 169 288 169 q 306 176 299 169 l 329 268 z "},"ç":{"ha":507,"x_min":36,"x_max":646,"o":"m 297 211 q 300 189 292 189 q 314 211 308 189 l 346 340 l 582 340 l 553 225 q 510 126 539 169 q 442 51 482 82 q 353 3 403 19 q 246 -14 303 -14 q 84 49 132 -14 q 64 225 36 113 l 129 483 q 237 659 157 596 q 431 722 317 722 q 595 658 544 722 q 618 483 646 594 l 589 368 l 353 368 l 385 497 q 382 519 390 519 q 368 497 374 519 l 297 211 m 210 0 l 301 0 l 276 -69 q 361 -92 335 -69 q 388 -149 388 -115 q 367 -201 388 -179 q 318 -238 347 -224 q 255 -260 289 -253 q 193 -267 221 -267 q 94 -256 154 -267 l 117 -168 q 151 -172 135 -172 q 169 -171 158 -172 q 192 -167 181 -169 q 213 -159 204 -164 q 221 -146 221 -154 q 203 -130 221 -135 q 156 -125 186 -125 l 210 0 z "},"đ":{"ha":507,"x_min":46,"x_max":774,"o":"m 263 0 l 278 63 l 261 63 q 199 6 232 25 q 136 -14 165 -14 q 91 -1 111 -14 q 59 39 71 13 q 47 106 47 65 q 58 199 46 146 l 149 560 q 218 685 171 646 q 313 724 265 724 q 374 703 347 724 q 407 646 400 682 l 424 646 l 511 1000 l 747 1000 l 499 0 l 263 0 m 389 508 q 381 515 385 515 q 371 504 374 515 l 297 208 q 301 196 294 196 q 313 203 306 196 l 389 508 m 733 776 l 386 776 l 426 938 l 774 938 l 733 776 z "},"è":{"ha":507,"x_min":36,"x_max":646,"o":"m 565 271 l 554 225 q 444 50 526 114 q 247 -14 361 -14 q 84 49 132 -14 q 64 225 36 113 l 129 483 q 237 659 157 596 q 431 722 317 722 q 595 658 544 722 q 618 483 646 594 l 572 299 l 319 299 l 297 211 q 300 189 293 189 q 314 211 310 189 l 329 271 l 565 271 m 350 424 l 367 424 l 386 497 q 383 519 390 519 q 369 497 374 519 l 350 424 m 356 764 l 240 954 l 421 954 l 508 764 l 356 764 z "},"é":{"ha":507,"x_min":36,"x_max":646,"o":"m 565 271 l 554 225 q 444 50 526 114 q 247 -14 361 -14 q 84 49 132 -14 q 64 225 36 113 l 129 483 q 237 659 157 596 q 431 722 317 722 q 595 658 544 722 q 618 483 646 594 l 572 299 l 319 299 l 297 211 q 300 189 293 189 q 314 211 310 189 l 329 271 l 565 271 m 350 424 l 367 424 l 386 497 q 383 519 390 519 q 369 497 374 519 l 350 424 m 358 764 l 446 954 l 626 954 l 511 764 l 358 764 z "},"ê":{"ha":507,"x_min":36,"x_max":646,"o":"m 565 271 l 554 225 q 444 50 526 114 q 247 -14 361 -14 q 84 49 132 -14 q 64 225 36 113 l 129 483 q 237 659 157 596 q 431 722 317 722 q 595 658 544 722 q 618 483 646 594 l 572 299 l 319 299 l 297 211 q 300 189 293 189 q 314 211 310 189 l 329 271 l 565 271 m 350 424 l 367 424 l 386 497 q 383 519 390 519 q 369 497 374 519 l 350 424 m 296 763 l 399 953 l 565 953 l 574 763 l 450 763 l 460 826 l 451 826 l 428 763 l 296 763 z "},"ë":{"ha":507,"x_min":36,"x_max":676,"o":"m 565 271 l 554 225 q 444 50 526 114 q 247 -14 361 -14 q 84 49 132 -14 q 64 225 36 113 l 129 483 q 237 659 157 596 q 431 722 317 722 q 595 658 544 722 q 618 483 646 594 l 572 299 l 319 299 l 297 211 q 300 189 293 189 q 314 211 310 189 l 329 271 l 565 271 m 350 424 l 367 424 l 386 497 q 383 519 390 519 q 369 497 374 519 l 350 424 m 263 860 q 301 934 274 907 q 385 961 328 961 q 456 933 442 961 q 460 858 471 906 q 421 784 449 811 q 336 757 393 757 q 265 784 279 757 q 263 860 251 811 m 468 860 q 506 934 479 907 q 590 961 533 961 q 662 933 647 961 q 665 858 676 906 q 626 784 654 811 q 542 757 599 757 q 471 784 485 757 q 468 860 457 811 z "},"ì":{"ha":257,"x_min":11,"x_max":424,"o":"m 424 708 l 247 0 l 11 0 l 188 708 l 424 708 m 232 764 l 117 954 l 297 954 l 385 764 l 232 764 z "},"í":{"ha":257,"x_min":11,"x_max":503,"o":"m 424 708 l 247 0 l 11 0 l 188 708 l 424 708 m 235 764 l 322 954 l 503 954 l 388 764 l 235 764 z "},"î":{"ha":257,"x_min":11,"x_max":450,"o":"m 424 708 l 247 0 l 11 0 l 188 708 l 424 708 m 172 763 l 275 953 l 442 953 l 450 763 l 326 763 l 336 826 l 328 826 l 304 763 l 172 763 z "},"ï":{"ha":404,"x_min":85,"x_max":626,"o":"m 497 708 l 321 0 l 85 0 l 261 708 l 497 708 m 213 860 q 251 934 224 907 q 335 961 278 961 q 406 933 392 961 q 410 858 421 906 q 371 784 399 811 q 286 757 343 757 q 215 784 229 757 q 213 860 201 811 m 418 860 q 456 934 429 907 q 540 961 483 961 q 612 933 597 961 q 615 858 626 906 q 576 784 604 811 q 492 757 549 757 q 421 784 435 757 q 418 860 407 811 z "},"ł":{"ha":254,"x_min":8,"x_max":494,"o":"m 258 1000 l 494 1000 l 244 0 l 8 0 l 258 1000 m 444 444 l 53 315 l 35 467 l 428 596 l 444 444 z "},"ñ":{"ha":507,"x_min":8,"x_max":644,"o":"m 185 708 l 421 708 l 406 647 l 422 647 q 551 722 479 722 q 597 713 576 722 q 629 681 618 703 q 642 624 640 658 q 632 540 644 589 l 497 0 l 261 0 l 388 506 q 383 517 390 517 q 372 510 379 517 l 244 0 l 8 0 l 185 708 m 615 947 q 564 808 592 851 q 500 764 536 764 q 466 772 482 764 q 435 788 450 779 l 431 790 q 408 803 418 797 q 388 808 397 808 q 356 771 364 808 l 356 769 l 300 769 l 301 772 q 353 907 324 860 q 419 954 383 954 q 451 947 435 954 q 482 932 467 940 l 486 929 q 510 917 499 922 q 532 913 522 913 q 563 947 554 913 l 564 950 l 617 950 l 615 947 z "},"ò":{"ha":507,"x_min":53,"x_max":632,"o":"m 129 483 q 168 580 142 536 q 233 655 194 624 q 321 704 271 686 q 431 722 371 722 q 533 704 492 722 q 599 654 575 686 q 627 578 622 622 q 619 483 632 535 l 554 225 q 515 130 542 174 q 448 54 488 86 q 358 4 408 22 q 247 -14 307 -14 q 147 4 188 -14 q 83 53 106 22 q 57 129 61 85 q 65 225 53 174 l 129 483 m 297 211 q 300 189 292 189 q 314 211 308 189 l 385 497 q 382 519 390 519 q 368 497 374 519 l 297 211 m 358 764 l 243 954 l 424 954 l 511 764 l 358 764 z "},"ó":{"ha":507,"x_min":53,"x_max":632,"o":"m 129 483 q 168 580 142 536 q 233 655 194 624 q 321 704 271 686 q 431 722 371 722 q 533 704 492 722 q 599 654 575 686 q 627 578 622 622 q 619 483 632 535 l 554 225 q 515 130 542 174 q 448 54 488 86 q 358 4 408 22 q 247 -14 307 -14 q 147 4 188 -14 q 83 53 106 22 q 57 129 61 85 q 65 225 53 174 l 129 483 m 297 211 q 300 189 292 189 q 314 211 308 189 l 385 497 q 382 519 390 519 q 368 497 374 519 l 297 211 m 361 764 l 449 954 l 629 954 l 514 764 l 361 764 z "},"ô":{"ha":507,"x_min":53,"x_max":632,"o":"m 129 483 q 168 580 142 536 q 233 655 194 624 q 321 704 271 686 q 431 722 371 722 q 533 704 492 722 q 599 654 575 686 q 627 578 622 622 q 619 483 632 535 l 554 225 q 515 130 542 174 q 448 54 488 86 q 358 4 408 22 q 247 -14 307 -14 q 147 4 188 -14 q 83 53 106 22 q 57 129 61 85 q 65 225 53 174 l 129 483 m 297 211 q 300 189 292 189 q 314 211 308 189 l 385 497 q 382 519 390 519 q 368 497 374 519 l 297 211 m 299 763 l 401 953 l 568 953 l 576 763 l 453 763 l 463 826 l 454 826 l 431 763 l 299 763 z "},"õ":{"ha":507,"x_min":53,"x_max":632,"o":"m 129 483 q 168 580 142 536 q 233 655 194 624 q 321 704 271 686 q 431 722 371 722 q 533 704 492 722 q 599 654 575 686 q 627 578 622 622 q 619 483 632 535 l 554 225 q 515 130 542 174 q 448 54 488 86 q 358 4 408 22 q 247 -14 307 -14 q 147 4 188 -14 q 83 53 106 22 q 57 129 61 85 q 65 225 53 174 l 129 483 m 297 211 q 300 189 292 189 q 314 211 308 189 l 385 497 q 382 519 390 519 q 368 497 374 519 l 297 211 m 617 947 q 565 808 593 851 q 501 764 538 764 q 467 772 483 764 q 436 788 451 779 l 432 790 q 409 803 419 797 q 389 808 399 808 q 357 771 365 808 l 357 769 l 301 769 l 303 772 q 355 907 325 860 q 421 954 385 954 q 452 947 436 954 q 483 932 468 940 l 488 929 q 512 917 500 922 q 533 913 524 913 q 564 947 556 913 l 565 950 l 618 950 l 617 947 z "},"ö":{"ha":507,"x_min":53,"x_max":679,"o":"m 129 483 q 168 580 142 536 q 233 655 194 624 q 321 704 271 686 q 431 722 371 722 q 533 704 492 722 q 599 654 575 686 q 627 578 622 622 q 619 483 632 535 l 554 225 q 515 130 542 174 q 448 54 488 86 q 358 4 408 22 q 247 -14 307 -14 q 147 4 188 -14 q 83 53 106 22 q 57 129 61 85 q 65 225 53 174 l 129 483 m 297 211 q 300 189 292 189 q 314 211 308 189 l 385 497 q 382 519 390 519 q 368 497 374 519 l 297 211 m 265 860 q 303 934 276 907 q 388 961 331 961 q 459 933 444 961 q 463 858 474 906 q 424 784 451 811 q 339 757 396 757 q 268 784 282 757 q 265 860 254 811 m 471 860 q 509 934 482 907 q 593 961 536 961 q 665 933 650 961 q 668 858 679 906 q 629 784 657 811 q 544 757 601 757 q 474 784 488 757 q 471 860 460 811 z "},"ø":{"ha":507,"x_min":11,"x_max":671,"o":"m 129 483 q 168 580 142 536 q 233 655 194 624 q 321 704 271 686 q 431 722 371 722 q 586 668 536 722 l 633 724 l 671 697 l 613 631 q 619 483 640 568 l 554 225 q 515 130 542 174 q 448 54 488 86 q 358 4 408 22 q 247 -14 307 -14 q 94 39 144 -14 l 49 -14 l 11 11 l 69 78 q 65 225 42 138 l 129 483 m 342 389 l 365 415 l 385 497 q 382 519 390 519 q 368 497 374 519 l 342 389 m 297 211 q 300 189 292 189 q 314 211 308 189 l 342 321 l 318 294 l 297 211 z "},"œ":{"ha":760,"x_min":53,"x_max":899,"o":"m 129 483 q 168 580 142 536 q 233 655 194 624 q 321 704 271 686 q 431 722 371 722 q 494 715 468 722 q 542 696 519 708 l 558 696 q 617 715 588 708 q 683 722 647 722 q 848 658 797 722 q 871 483 899 594 l 825 299 l 572 299 l 550 211 q 553 189 546 189 q 567 211 563 189 l 582 271 l 818 271 l 807 225 q 697 50 779 114 q 500 -14 614 -14 q 438 -7 464 -14 q 390 13 413 0 l 372 13 q 314 -7 344 0 q 247 -14 283 -14 q 147 4 188 -14 q 83 53 106 22 q 57 129 61 85 q 65 225 53 174 l 129 483 m 297 211 q 300 189 292 189 q 314 211 308 189 l 386 497 q 383 519 392 519 q 368 497 374 519 l 297 211 m 604 424 l 621 424 l 639 497 q 636 519 644 519 q 622 497 628 519 l 604 424 z "},"Þ":{"ha":535,"x_min":10,"x_max":690,"o":"m 501 972 l 465 829 l 471 829 q 644 745 597 829 q 646 478 690 661 l 644 475 q 589 317 621 381 q 515 215 557 253 q 418 160 472 176 q 297 143 364 143 l 294 143 l 260 0 l 10 0 l 251 972 l 501 972 m 349 360 l 351 360 q 365 363 363 360 q 371 382 368 367 l 422 590 q 426 609 426 606 q 414 613 425 613 l 411 613 l 349 360 z "},"š":{"ha":507,"x_min":50,"x_max":633,"o":"m 378 467 l 386 497 q 382 518 390 518 q 369 497 374 518 l 369 496 q 369 467 364 476 q 394 447 374 458 l 481 399 q 551 330 532 369 q 551 219 569 290 l 546 197 q 510 117 536 156 q 445 50 483 79 q 356 3 407 21 q 246 -14 306 -14 q 146 3 186 -14 q 83 52 106 21 q 55 125 60 83 q 63 214 50 167 l 69 242 l 306 242 l 299 214 q 301 193 294 193 q 315 214 311 193 l 315 215 q 315 244 321 235 q 285 265 310 253 l 197 311 q 129 378 144 339 q 132 489 114 418 l 138 511 q 174 591 149 553 q 236 658 199 629 q 323 705 274 688 q 432 722 372 722 q 533 704 492 722 q 597 656 574 686 q 627 584 621 625 q 621 496 633 543 l 614 467 l 378 467 m 628 954 l 525 764 l 358 764 l 350 954 l 474 954 l 465 890 l 474 890 l 496 954 l 628 954 z "},"ù":{"ha":507,"x_min":28,"x_max":675,"o":"m 499 0 l 263 0 l 278 61 l 261 61 q 132 -14 204 -14 q 54 28 81 -14 q 51 168 28 71 l 186 708 l 422 708 l 294 197 q 299 186 292 186 q 310 193 303 186 l 439 708 l 675 708 l 499 0 m 358 764 l 243 954 l 424 954 l 511 764 l 358 764 z "},"ú":{"ha":507,"x_min":28,"x_max":675,"o":"m 499 0 l 263 0 l 278 61 l 261 61 q 132 -14 204 -14 q 54 28 81 -14 q 51 168 28 71 l 186 708 l 422 708 l 294 197 q 299 186 292 186 q 310 193 303 186 l 439 708 l 675 708 l 499 0 m 361 764 l 449 954 l 629 954 l 514 764 l 361 764 z "},"û":{"ha":507,"x_min":28,"x_max":675,"o":"m 499 0 l 263 0 l 278 61 l 261 61 q 132 -14 204 -14 q 54 28 81 -14 q 51 168 28 71 l 186 708 l 422 708 l 294 197 q 299 186 292 186 q 310 193 303 186 l 439 708 l 675 708 l 499 0 m 299 763 l 401 953 l 568 953 l 576 763 l 453 763 l 463 826 l 454 826 l 431 763 l 299 763 z "},"ü":{"ha":507,"x_min":28,"x_max":679,"o":"m 499 0 l 263 0 l 278 61 l 261 61 q 132 -14 204 -14 q 54 28 81 -14 q 51 168 28 71 l 186 708 l 422 708 l 294 197 q 299 186 292 186 q 310 193 303 186 l 439 708 l 675 708 l 499 0 m 265 860 q 303 934 276 907 q 388 961 331 961 q 459 933 444 961 q 463 858 474 906 q 424 784 451 811 q 339 757 396 757 q 268 784 282 757 q 265 860 254 811 m 471 860 q 509 934 482 907 q 593 961 536 961 q 665 933 650 961 q 668 858 679 906 q 629 784 657 811 q 544 757 601 757 q 474 784 488 757 q 471 860 460 811 z "},"ý":{"ha":507,"x_min":-36,"x_max":675,"o":"m 478 -81 q 376 -237 453 -182 q 182 -292 300 -292 q 14 -236 64 -292 q -11 -81 -36 -181 l 0 -36 l 236 -36 l 229 -67 q 232 -89 224 -89 q 246 -64 240 -89 l 276 61 l 260 61 q 132 -14 203 -14 q 53 28 81 -14 q 51 168 26 71 l 186 708 l 422 708 l 294 197 q 299 186 292 186 q 310 193 303 186 l 439 708 l 675 708 l 478 -81 m 361 764 l 449 954 l 629 954 l 514 764 l 361 764 z "},"ÿ":{"ha":507,"x_min":-36,"x_max":679,"o":"m 478 -81 q 376 -237 453 -182 q 182 -292 300 -292 q 14 -236 64 -292 q -11 -81 -36 -181 l 0 -36 l 236 -36 l 229 -67 q 232 -89 224 -89 q 246 -64 240 -89 l 276 61 l 260 61 q 132 -14 203 -14 q 53 28 81 -14 q 51 168 26 71 l 186 708 l 422 708 l 294 197 q 299 186 292 186 q 310 193 303 186 l 439 708 l 675 708 l 478 -81 m 265 860 q 303 934 276 907 q 388 961 331 961 q 459 933 444 961 q 463 858 474 906 q 424 784 451 811 q 339 757 396 757 q 268 784 282 757 q 265 860 254 811 m 471 860 q 509 934 482 907 q 593 961 536 961 q 665 933 650 961 q 668 858 679 906 q 629 784 657 811 q 544 757 601 757 q 474 784 488 757 q 471 860 460 811 z "},"ž":{"ha":436,"x_min":8,"x_max":601,"o":"m 8 0 l 60 201 l 281 490 l 278 506 l 142 506 l 193 708 l 594 708 l 543 507 l 321 217 l 326 203 l 478 203 l 426 0 l 8 0 m 601 953 l 499 763 l 332 763 l 324 953 l 447 953 l 439 889 l 447 889 l 469 953 l 601 953 z "},"þ":{"ha":508,"x_min":-64,"x_max":658,"o":"m 258 1000 l 496 1000 l 407 647 l 424 647 q 485 704 451 686 q 557 722 519 722 q 636 681 614 722 q 638 554 658 640 l 543 178 q 474 38 521 89 q 367 -14 426 -14 q 308 5 332 -14 q 278 61 285 24 l 261 61 l 172 -292 l -64 -292 l 258 1000 m 296 200 q 304 193 299 193 q 314 207 311 193 l 388 504 q 385 515 392 515 q 372 508 379 515 l 296 200 z "},"Ā":{"ha":526,"x_min":6,"x_max":718,"o":"m 703 972 l 522 0 l 272 0 l 322 200 l 306 200 l 256 0 l 6 0 l 314 972 l 703 972 m 376 417 l 406 536 l 389 536 l 360 417 l 376 417 m 674 1033 l 368 1033 l 413 1214 l 718 1214 l 674 1033 z "},"ā":{"ha":507,"x_min":25,"x_max":646,"o":"m 385 497 q 382 519 390 519 q 368 497 374 519 l 346 404 l 110 404 l 129 483 q 237 659 157 596 q 431 722 317 722 q 595 658 544 722 q 618 483 646 594 l 497 0 l 261 0 l 275 53 l 269 53 q 199 2 233 18 q 132 -14 164 -14 q 51 25 76 -14 q 40 126 25 64 l 69 242 q 94 297 76 271 q 136 341 113 322 q 189 371 160 360 q 249 382 218 382 l 357 382 l 385 497 m 328 268 l 318 268 q 308 257 313 268 l 290 181 q 294 169 288 169 q 306 176 299 169 l 328 268 m 600 769 l 294 769 l 339 950 l 644 950 l 600 769 z "},"Ă":{"ha":526,"x_min":6,"x_max":733,"o":"m 703 972 l 522 0 l 272 0 l 322 200 l 306 200 l 256 0 l 6 0 l 314 972 l 703 972 m 376 417 l 406 536 l 389 536 l 360 417 l 376 417 m 532 1218 q 550 1167 519 1167 q 593 1218 581 1167 l 733 1218 q 653 1071 707 1114 q 517 1028 600 1028 q 401 1071 433 1028 q 394 1218 368 1114 l 532 1218 z "},"ă":{"ha":507,"x_min":25,"x_max":660,"o":"m 385 497 q 382 519 390 519 q 368 497 374 519 l 346 404 l 110 404 l 129 483 q 237 659 157 596 q 431 722 317 722 q 595 658 544 722 q 618 483 646 594 l 497 0 l 261 0 l 275 53 l 269 53 q 199 2 233 18 q 132 -14 164 -14 q 51 25 76 -14 q 40 126 25 64 l 69 242 q 94 297 76 271 q 136 341 113 322 q 189 371 160 360 q 249 382 218 382 l 357 382 l 385 497 m 328 268 l 318 268 q 308 257 313 268 l 290 181 q 294 169 288 169 q 306 176 299 169 l 328 268 m 458 954 q 476 903 446 903 q 519 954 507 903 l 660 954 q 580 807 633 850 q 443 764 526 764 q 327 807 360 764 q 321 954 294 850 l 458 954 z "},"Ą":{"ha":526,"x_min":6,"x_max":703,"o":"m 703 972 l 522 0 l 272 0 l 322 200 l 306 200 l 256 0 l 6 0 l 314 972 l 703 972 m 376 417 l 406 536 l 389 536 l 360 417 l 376 417 m 521 11 l 518 1 q 458 -24 486 1 q 431 -82 431 -50 q 468 -117 431 -117 q 489 -115 482 -117 l 460 -233 q 416 -242 436 -240 q 378 -244 396 -244 q 286 -218 315 -244 q 257 -151 257 -192 q 285 -78 257 -108 q 353 -28 313 -47 q 440 1 394 -8 q 521 11 486 11 z "},"ą":{"ha":507,"x_min":25,"x_max":646,"o":"m 385 497 q 382 519 390 519 q 368 497 374 519 l 346 404 l 110 404 l 129 483 q 237 659 157 596 q 431 722 317 722 q 595 658 544 722 q 618 483 646 594 l 497 0 l 261 0 l 275 53 l 269 53 q 199 2 233 18 q 132 -14 164 -14 q 51 25 76 -14 q 40 126 25 64 l 69 242 q 94 297 76 271 q 136 341 113 322 q 189 371 160 360 q 249 382 218 382 l 357 382 l 385 497 m 328 268 l 318 268 q 308 257 313 268 l 290 181 q 294 169 288 169 q 306 176 299 169 l 328 268 m 499 11 l 496 1 q 436 -24 464 1 q 408 -82 408 -50 q 446 -117 408 -117 q 467 -115 460 -117 l 438 -233 q 394 -242 414 -240 q 356 -244 374 -244 q 264 -218 293 -244 q 235 -151 235 -192 q 263 -78 235 -108 q 331 -28 290 -47 q 418 1 372 -8 q 499 11 464 11 z "},"Ć":{"ha":535,"x_min":39,"x_max":739,"o":"m 317 225 q 319 203 311 203 q 333 225 328 203 l 394 472 l 644 472 l 586 244 q 471 53 556 119 q 261 -14 386 -14 q 88 52 138 -14 q 71 244 39 118 l 192 729 q 305 921 224 856 q 510 986 386 986 q 688 919 636 986 q 708 729 739 853 l 651 500 l 401 500 l 463 747 q 460 769 468 769 q 446 747 451 769 l 317 225 m 443 1028 l 531 1218 l 711 1218 l 596 1028 l 443 1028 z "},"ć":{"ha":507,"x_min":36,"x_max":646,"o":"m 297 211 q 300 189 292 189 q 314 211 308 189 l 346 340 l 582 340 l 553 225 q 510 126 539 169 q 442 51 482 82 q 353 3 403 19 q 246 -14 303 -14 q 84 49 132 -14 q 64 225 36 113 l 129 483 q 237 659 157 596 q 431 722 317 722 q 595 658 544 722 q 618 483 646 594 l 589 368 l 353 368 l 385 497 q 382 519 390 519 q 368 497 374 519 l 297 211 m 361 764 l 449 954 l 629 954 l 514 764 l 361 764 z "},"Ĉ":{"ha":535,"x_min":39,"x_max":739,"o":"m 317 225 q 319 203 311 203 q 333 225 328 203 l 394 472 l 644 472 l 586 244 q 471 53 556 119 q 261 -14 386 -14 q 88 52 138 -14 q 71 244 39 118 l 192 729 q 305 921 224 856 q 510 986 386 986 q 688 919 636 986 q 708 729 739 853 l 651 500 l 401 500 l 463 747 q 460 769 468 769 q 446 747 451 769 l 317 225 m 381 1026 l 483 1217 l 650 1217 l 658 1026 l 535 1026 l 544 1090 l 536 1090 l 513 1026 l 381 1026 z "},"ĉ":{"ha":507,"x_min":36,"x_max":646,"o":"m 297 211 q 300 189 292 189 q 314 211 308 189 l 346 340 l 582 340 l 553 225 q 510 126 539 169 q 442 51 482 82 q 353 3 403 19 q 246 -14 303 -14 q 84 49 132 -14 q 64 225 36 113 l 129 483 q 237 659 157 596 q 431 722 317 722 q 595 658 544 722 q 618 483 646 594 l 589 368 l 353 368 l 385 497 q 382 519 390 519 q 368 497 374 519 l 297 211 m 299 763 l 401 953 l 568 953 l 576 763 l 453 763 l 463 826 l 454 826 l 431 763 l 299 763 z "},"Ċ":{"ha":535,"x_min":39,"x_max":739,"o":"m 317 225 q 319 203 311 203 q 333 225 328 203 l 394 472 l 644 472 l 586 244 q 471 53 556 119 q 261 -14 386 -14 q 88 52 138 -14 q 71 244 39 118 l 192 729 q 305 921 224 856 q 510 986 386 986 q 688 919 636 986 q 708 729 739 853 l 651 500 l 401 500 l 463 747 q 460 769 468 769 q 446 747 451 769 l 317 225 m 450 1124 q 488 1198 461 1171 q 574 1225 515 1225 q 644 1197 631 1225 q 647 1122 658 1169 q 608 1048 636 1075 q 524 1021 581 1021 q 453 1048 467 1021 q 450 1124 439 1075 z "},"ċ":{"ha":507,"x_min":36,"x_max":646,"o":"m 297 211 q 300 189 292 189 q 314 211 308 189 l 346 340 l 582 340 l 553 225 q 510 126 539 169 q 442 51 482 82 q 353 3 403 19 q 246 -14 303 -14 q 84 49 132 -14 q 64 225 36 113 l 129 483 q 237 659 157 596 q 431 722 317 722 q 595 658 544 722 q 618 483 646 594 l 589 368 l 353 368 l 385 497 q 382 519 390 519 q 368 497 374 519 l 297 211 m 368 860 q 406 934 379 907 q 492 961 433 961 q 563 933 549 961 q 565 858 576 906 q 526 784 554 811 q 442 757 499 757 q 371 784 385 757 q 368 860 357 811 z "},"Č":{"ha":535,"x_min":39,"x_max":739,"o":"m 317 225 q 319 203 311 203 q 333 225 328 203 l 394 472 l 644 472 l 586 244 q 471 53 556 119 q 261 -14 386 -14 q 88 52 138 -14 q 71 244 39 118 l 192 729 q 305 921 224 856 q 510 986 386 986 q 688 919 636 986 q 708 729 739 853 l 651 500 l 401 500 l 463 747 q 460 769 468 769 q 446 747 451 769 l 317 225 m 710 1218 l 607 1028 l 440 1028 l 432 1218 l 556 1218 l 547 1154 l 556 1154 l 578 1218 l 710 1218 z "},"č":{"ha":507,"x_min":36,"x_max":646,"o":"m 297 211 q 300 189 292 189 q 314 211 308 189 l 346 340 l 582 340 l 553 225 q 510 126 539 169 q 442 51 482 82 q 353 3 403 19 q 246 -14 303 -14 q 84 49 132 -14 q 64 225 36 113 l 129 483 q 237 659 157 596 q 431 722 317 722 q 595 658 544 722 q 618 483 646 594 l 589 368 l 353 368 l 385 497 q 382 519 390 519 q 368 497 374 519 l 297 211 m 628 954 l 525 764 l 358 764 l 350 954 l 474 954 l 465 890 l 474 890 l 496 954 l 628 954 z "},"Ď":{"ha":535,"x_min":10,"x_max":738,"o":"m 507 972 q 685 912 632 972 q 707 729 738 851 l 586 243 q 473 60 556 119 q 265 0 390 0 l 10 0 l 251 972 l 507 972 m 314 217 l 317 217 q 329 220 326 217 q 335 239 332 224 l 458 733 q 462 752 463 749 q 451 756 461 756 l 449 756 l 314 217 m 697 1218 l 594 1028 l 428 1028 l 419 1218 l 543 1218 l 535 1154 l 543 1154 l 565 1218 l 697 1218 z "},"ď":{"ha":507,"x_min":46,"x_max":953,"o":"m 263 0 l 278 63 l 261 63 q 199 6 232 25 q 136 -14 165 -14 q 91 -1 111 -14 q 59 39 71 13 q 47 106 47 65 q 58 199 46 146 l 149 560 q 218 685 171 646 q 313 724 265 724 q 374 703 347 724 q 407 646 400 682 l 424 646 l 511 1000 l 747 1000 l 499 0 l 263 0 m 389 508 q 381 515 385 515 q 371 504 374 515 l 297 208 q 301 196 294 196 q 313 203 306 196 l 389 508 m 792 1000 l 953 1000 l 768 657 l 676 657 l 792 1000 z "},"Ē":{"ha":379,"x_min":10,"x_max":643,"o":"m 447 756 l 414 621 l 525 621 l 471 404 l 360 404 l 313 217 l 424 217 l 369 0 l 10 0 l 251 972 l 613 972 l 558 756 l 447 756 m 599 1033 l 293 1033 l 338 1214 l 643 1214 l 599 1033 z "},"ē":{"ha":507,"x_min":36,"x_max":646,"o":"m 565 271 l 554 225 q 444 50 526 114 q 247 -14 361 -14 q 84 49 132 -14 q 64 225 36 113 l 129 483 q 237 659 157 596 q 431 722 317 722 q 595 658 544 722 q 618 483 646 594 l 572 299 l 319 299 l 297 211 q 300 189 293 189 q 314 211 310 189 l 329 271 l 565 271 m 350 424 l 367 424 l 386 497 q 383 519 390 519 q 369 497 374 519 l 350 424 m 597 769 l 292 769 l 336 950 l 642 950 l 597 769 z "},"Ĕ":{"ha":379,"x_min":10,"x_max":658,"o":"m 447 756 l 414 621 l 525 621 l 471 404 l 360 404 l 313 217 l 424 217 l 369 0 l 10 0 l 251 972 l 613 972 l 558 756 l 447 756 m 457 1218 q 475 1167 444 1167 q 518 1218 506 1167 l 658 1218 q 578 1071 632 1114 q 442 1028 525 1028 q 326 1071 358 1028 q 319 1218 293 1114 l 457 1218 z "},"ĕ":{"ha":507,"x_min":36,"x_max":657,"o":"m 565 271 l 554 225 q 444 50 526 114 q 247 -14 361 -14 q 84 49 132 -14 q 64 225 36 113 l 129 483 q 237 659 157 596 q 431 722 317 722 q 595 658 544 722 q 618 483 646 594 l 572 299 l 319 299 l 297 211 q 300 189 293 189 q 314 211 310 189 l 329 271 l 565 271 m 350 424 l 367 424 l 386 497 q 383 519 390 519 q 369 497 374 519 l 350 424 m 456 954 q 474 903 443 903 q 517 954 504 903 l 657 954 q 577 807 631 850 q 440 764 524 764 q 324 807 357 764 q 318 954 292 850 l 456 954 z "},"Ė":{"ha":379,"x_min":10,"x_max":613,"o":"m 447 756 l 414 621 l 525 621 l 471 404 l 360 404 l 313 217 l 424 217 l 369 0 l 10 0 l 251 972 l 613 972 l 558 756 l 447 756 m 367 1124 q 405 1198 378 1171 q 490 1225 432 1225 q 561 1197 547 1225 q 564 1122 575 1169 q 525 1048 553 1075 q 440 1021 497 1021 q 369 1048 383 1021 q 367 1124 356 1075 z "},"ė":{"ha":507,"x_min":36,"x_max":646,"o":"m 565 271 l 554 225 q 444 50 526 114 q 247 -14 361 -14 q 84 49 132 -14 q 64 225 36 113 l 129 483 q 237 659 157 596 q 431 722 317 722 q 595 658 544 722 q 618 483 646 594 l 572 299 l 319 299 l 297 211 q 300 189 293 189 q 314 211 310 189 l 329 271 l 565 271 m 350 424 l 367 424 l 386 497 q 383 519 390 519 q 369 497 374 519 l 350 424 m 365 860 q 403 934 376 907 q 489 961 431 961 q 560 933 546 961 q 563 858 574 906 q 524 784 551 811 q 439 757 496 757 q 368 784 382 757 q 365 860 354 811 z "},"Ę":{"ha":379,"x_min":10,"x_max":613,"o":"m 447 756 l 414 621 l 525 621 l 471 404 l 360 404 l 313 217 l 424 217 l 369 0 l 10 0 l 251 972 l 613 972 l 558 756 l 447 756 m 372 11 l 369 1 q 310 -24 338 1 q 282 -82 282 -50 q 319 -117 282 -117 q 340 -115 333 -117 l 311 -233 q 267 -242 288 -240 q 229 -244 247 -244 q 138 -218 167 -244 q 108 -151 108 -192 q 136 -78 108 -108 q 205 -28 164 -47 q 292 1 246 -8 q 372 11 338 11 z "},"ę":{"ha":507,"x_min":36,"x_max":646,"o":"m 565 271 l 554 225 q 444 50 526 114 q 247 -14 361 -14 q 84 49 132 -14 q 64 225 36 113 l 129 483 q 237 659 157 596 q 431 722 317 722 q 595 658 544 722 q 618 483 646 594 l 572 299 l 319 299 l 297 211 q 300 189 293 189 q 314 211 310 189 l 329 271 l 565 271 m 350 424 l 367 424 l 386 497 q 383 519 390 519 q 369 497 374 519 l 350 424 m 347 11 l 344 1 q 285 -24 313 1 q 257 -82 257 -50 q 294 -117 257 -117 q 315 -115 308 -117 l 286 -233 q 242 -242 263 -240 q 204 -244 222 -244 q 113 -218 142 -244 q 83 -151 83 -192 q 111 -78 83 -108 q 180 -28 139 -47 q 267 1 221 -8 q 347 11 313 11 z "},"Ě":{"ha":379,"x_min":10,"x_max":626,"o":"m 447 756 l 414 621 l 525 621 l 471 404 l 360 404 l 313 217 l 424 217 l 369 0 l 10 0 l 251 972 l 613 972 l 558 756 l 447 756 m 626 1218 l 524 1028 l 357 1028 l 349 1218 l 472 1218 l 464 1154 l 472 1154 l 494 1218 l 626 1218 z "},"ě":{"ha":507,"x_min":36,"x_max":646,"o":"m 565 271 l 554 225 q 444 50 526 114 q 247 -14 361 -14 q 84 49 132 -14 q 64 225 36 113 l 129 483 q 237 659 157 596 q 431 722 317 722 q 595 658 544 722 q 618 483 646 594 l 572 299 l 319 299 l 297 211 q 300 189 293 189 q 314 211 310 189 l 329 271 l 565 271 m 350 424 l 367 424 l 386 497 q 383 519 390 519 q 369 497 374 519 l 350 424 m 625 954 l 522 764 l 356 764 l 347 954 l 471 954 l 463 890 l 471 890 l 493 954 l 625 954 z "},"Ĝ":{"ha":535,"x_min":54,"x_max":739,"o":"m 396 544 l 661 544 l 526 0 l 357 0 l 376 78 l 360 78 q 293 10 338 33 q 201 -14 249 -14 q 135 1 167 -14 q 84 47 104 15 q 59 126 64 78 q 71 244 54 175 l 192 729 q 305 921 224 856 q 510 986 386 986 q 687 919 635 986 q 707 729 739 853 l 668 572 l 418 572 l 463 747 q 460 769 468 769 q 446 747 451 769 l 396 544 m 357 393 l 315 225 q 318 203 311 203 q 332 225 328 203 l 372 383 l 356 383 l 357 393 m 381 1026 l 483 1217 l 650 1217 l 658 1026 l 535 1026 l 544 1090 l 536 1090 l 513 1026 l 381 1026 z "},"ĝ":{"ha":507,"x_min":-36,"x_max":674,"o":"m 478 -81 q 376 -237 453 -182 q 182 -292 300 -292 q 14 -236 64 -292 q -11 -81 -36 -181 l 0 -36 l 236 -36 l 229 -67 q 232 -89 224 -89 q 246 -64 240 -89 l 276 61 l 261 61 q 201 6 235 25 q 135 -14 168 -14 q 53 38 75 -14 q 53 178 31 89 l 144 540 q 210 674 165 626 q 315 722 256 722 q 374 704 350 722 q 407 647 399 686 l 422 647 l 438 708 l 674 708 l 478 -81 m 388 506 q 381 514 386 514 q 369 501 374 514 l 299 213 q 300 193 294 193 q 313 203 303 193 l 388 506 m 268 763 l 371 953 l 538 953 l 546 763 l 422 763 l 432 826 l 424 826 l 400 763 l 268 763 z "},"Ğ":{"ha":535,"x_min":54,"x_max":742,"o":"m 396 544 l 661 544 l 526 0 l 357 0 l 376 78 l 360 78 q 293 10 338 33 q 201 -14 249 -14 q 135 1 167 -14 q 84 47 104 15 q 59 126 64 78 q 71 244 54 175 l 192 729 q 305 921 224 856 q 510 986 386 986 q 687 919 635 986 q 707 729 739 853 l 668 572 l 418 572 l 463 747 q 460 769 468 769 q 446 747 451 769 l 396 544 m 357 393 l 315 225 q 318 203 311 203 q 332 225 328 203 l 372 383 l 356 383 l 357 393 m 540 1218 q 558 1167 528 1167 q 601 1218 589 1167 l 742 1218 q 662 1071 715 1114 q 525 1028 608 1028 q 409 1071 442 1028 q 403 1218 376 1114 l 540 1218 z "},"ğ":{"ha":507,"x_min":-36,"x_max":674,"o":"m 478 -81 q 376 -237 453 -182 q 182 -292 300 -292 q 14 -236 64 -292 q -11 -81 -36 -181 l 0 -36 l 236 -36 l 229 -67 q 232 -89 224 -89 q 246 -64 240 -89 l 276 61 l 261 61 q 201 6 235 25 q 135 -14 168 -14 q 53 38 75 -14 q 53 178 31 89 l 144 540 q 210 674 165 626 q 315 722 256 722 q 374 704 350 722 q 407 647 399 686 l 422 647 l 438 708 l 674 708 l 478 -81 m 388 506 q 381 514 386 514 q 369 501 374 514 l 299 213 q 300 193 294 193 q 313 203 303 193 l 388 506 m 428 954 q 446 903 415 903 q 489 954 476 903 l 629 954 q 549 807 603 850 q 413 764 496 764 q 297 807 329 764 q 290 954 264 850 l 428 954 z "},"Ġ":{"ha":535,"x_min":54,"x_max":739,"o":"m 396 544 l 661 544 l 526 0 l 357 0 l 376 78 l 360 78 q 293 10 338 33 q 201 -14 249 -14 q 135 1 167 -14 q 84 47 104 15 q 59 126 64 78 q 71 244 54 175 l 192 729 q 305 921 224 856 q 510 986 386 986 q 687 919 635 986 q 707 729 739 853 l 668 572 l 418 572 l 463 747 q 460 769 468 769 q 446 747 451 769 l 396 544 m 357 393 l 315 225 q 318 203 311 203 q 332 225 328 203 l 372 383 l 356 383 l 357 393 m 450 1124 q 488 1198 461 1171 q 574 1225 515 1225 q 644 1197 631 1225 q 647 1122 658 1169 q 608 1048 636 1075 q 524 1021 581 1021 q 453 1048 467 1021 q 450 1124 439 1075 z "},"ġ":{"ha":507,"x_min":-36,"x_max":674,"o":"m 478 -81 q 376 -237 453 -182 q 182 -292 300 -292 q 14 -236 64 -292 q -11 -81 -36 -181 l 0 -36 l 236 -36 l 229 -67 q 232 -89 224 -89 q 246 -64 240 -89 l 276 61 l 261 61 q 201 6 235 25 q 135 -14 168 -14 q 53 38 75 -14 q 53 178 31 89 l 144 540 q 210 674 165 626 q 315 722 256 722 q 374 704 350 722 q 407 647 399 686 l 422 647 l 438 708 l 674 708 l 478 -81 m 388 506 q 381 514 386 514 q 369 501 374 514 l 299 213 q 300 193 294 193 q 313 203 303 193 l 388 506 m 338 860 q 376 934 349 907 q 461 961 403 961 q 532 933 518 961 q 535 858 546 906 q 496 784 524 811 q 411 757 468 757 q 340 784 354 757 q 338 860 326 811 z "},"Ģ":{"ha":535,"x_min":54,"x_max":739,"o":"m 396 544 l 661 544 l 526 0 l 357 0 l 376 78 l 360 78 q 293 10 338 33 q 201 -14 249 -14 q 135 1 167 -14 q 84 47 104 15 q 59 126 64 78 q 71 244 54 175 l 192 729 q 305 921 224 856 q 510 986 386 986 q 687 919 635 986 q 707 729 739 853 l 668 572 l 418 572 l 463 747 q 460 769 468 769 q 446 747 451 769 l 396 544 m 357 393 l 315 225 q 318 203 311 203 q 332 225 328 203 l 372 383 l 356 383 l 357 393 m 158 -56 l 347 -56 l 208 -246 l 88 -246 l 158 -56 z "},"ģ":{"ha":507,"x_min":-36,"x_max":674,"o":"m 478 -81 q 376 -237 453 -182 q 182 -292 300 -292 q 14 -236 64 -292 q -11 -81 -36 -181 l 0 -36 l 236 -36 l 229 -67 q 232 -89 224 -89 q 246 -64 240 -89 l 276 61 l 261 61 q 201 6 235 25 q 135 -14 168 -14 q 53 38 75 -14 q 53 178 31 89 l 144 540 q 210 674 165 626 q 315 722 256 722 q 374 704 350 722 q 407 647 399 686 l 422 647 l 438 708 l 674 708 l 478 -81 m 388 506 q 381 514 386 514 q 369 501 374 514 l 299 213 q 300 193 294 193 q 313 203 303 193 l 388 506 m 543 764 l 354 764 l 494 953 l 614 953 l 543 764 z "},"Ĥ":{"ha":535,"x_min":10,"x_max":768,"o":"m 768 972 l 526 0 l 276 0 l 374 390 l 357 390 l 260 0 l 10 0 l 251 972 l 501 972 l 410 607 l 426 607 l 518 972 l 768 972 m 381 1026 l 483 1217 l 650 1217 l 658 1026 l 535 1026 l 544 1090 l 536 1090 l 513 1026 l 381 1026 z "},"ĥ":{"ha":507,"x_min":8,"x_max":644,"o":"m 258 1000 l 494 1000 l 406 647 l 422 647 q 551 722 476 722 q 597 713 576 722 q 629 681 618 703 q 642 624 640 658 q 632 540 644 589 l 497 0 l 261 0 l 386 503 q 382 514 390 514 q 371 507 378 514 l 244 0 l 8 0 l 258 1000 m 242 1040 l 344 1231 l 511 1231 l 519 1040 l 396 1040 l 406 1104 l 397 1104 l 374 1040 l 242 1040 z "},"Ħ":{"ha":535,"x_min":10,"x_max":768,"o":"m 768 972 l 731 819 l 757 819 l 722 681 l 696 681 l 526 0 l 276 0 l 374 390 l 357 390 l 260 0 l 10 0 l 179 681 l 150 681 l 185 819 l 214 819 l 251 972 l 501 972 l 464 819 l 481 819 l 518 972 l 768 972 m 426 607 l 446 681 l 429 681 l 410 607 l 426 607 z "},"ħ":{"ha":507,"x_min":8,"x_max":644,"o":"m 258 1000 l 494 1000 l 406 647 l 422 647 q 551 722 476 722 q 597 713 576 722 q 629 681 618 703 q 642 624 640 658 q 632 540 644 589 l 497 0 l 261 0 l 386 503 q 382 514 390 514 q 371 507 378 514 l 244 0 l 8 0 l 258 1000 m 507 776 l 160 776 l 200 938 l 547 938 l 507 776 z "},"Ĩ":{"ha":268,"x_min":10,"x_max":564,"o":"m 501 972 l 260 0 l 10 0 l 251 972 l 501 972 m 563 1211 q 511 1072 539 1115 q 447 1028 483 1028 q 413 1035 429 1028 q 382 1051 397 1043 l 378 1054 q 355 1067 365 1061 q 335 1072 344 1072 q 303 1035 311 1072 l 303 1033 l 247 1033 l 249 1036 q 301 1171 271 1124 q 367 1218 331 1218 q 398 1211 382 1218 q 429 1196 414 1204 l 433 1193 q 458 1181 446 1186 q 479 1176 469 1176 q 510 1211 501 1176 l 511 1214 l 564 1214 l 563 1211 z "},"ĩ":{"ha":257,"x_min":11,"x_max":492,"o":"m 424 708 l 247 0 l 11 0 l 188 708 l 424 708 m 490 947 q 439 808 467 851 q 375 764 411 764 q 341 772 357 764 q 310 788 325 779 l 306 790 q 283 803 293 797 q 263 808 272 808 q 231 771 239 808 l 231 769 l 175 769 l 176 772 q 228 907 199 860 q 294 954 258 954 q 326 947 310 954 q 357 932 342 940 l 361 929 q 385 917 374 922 q 407 913 397 913 q 438 947 429 913 l 439 950 l 492 950 l 490 947 z "},"Ī":{"ha":268,"x_min":10,"x_max":590,"o":"m 501 972 l 260 0 l 10 0 l 251 972 l 501 972 m 546 1033 l 240 1033 l 285 1214 l 590 1214 l 546 1033 z "},"ī":{"ha":257,"x_min":11,"x_max":518,"o":"m 424 708 l 247 0 l 11 0 l 188 708 l 424 708 m 474 769 l 168 769 l 213 950 l 518 950 l 474 769 z "},"Ĭ":{"ha":268,"x_min":10,"x_max":606,"o":"m 501 972 l 260 0 l 10 0 l 251 972 l 501 972 m 404 1218 q 422 1167 392 1167 q 465 1218 453 1167 l 606 1218 q 526 1071 579 1114 q 389 1028 472 1028 q 273 1071 306 1028 q 267 1218 240 1114 l 404 1218 z "},"ĭ":{"ha":257,"x_min":11,"x_max":533,"o":"m 424 708 l 247 0 l 11 0 l 188 708 l 424 708 m 332 954 q 350 903 319 903 q 393 954 381 903 l 533 954 q 453 807 507 850 q 317 764 400 764 q 201 807 233 764 q 194 954 168 850 l 332 954 z "},"Į":{"ha":268,"x_min":-3,"x_max":501,"o":"m 501 972 l 260 0 l 10 0 l 251 972 l 501 972 m 261 11 l 258 1 q 199 -24 226 1 q 171 -82 171 -50 q 208 -117 171 -117 q 229 -115 222 -117 l 200 -233 q 156 -242 176 -240 q 118 -244 136 -244 q 26 -218 56 -244 q -3 -151 -3 -192 q 25 -78 -3 -108 q 94 -28 53 -47 q 181 1 135 -8 q 261 11 226 11 z "},"į":{"ha":257,"x_min":-36,"x_max":485,"o":"m 217 860 q 272 945 232 918 q 369 972 311 972 q 456 945 428 972 q 469 860 485 918 q 414 774 454 801 q 315 747 374 747 q 229 774 257 747 q 217 860 201 801 m 424 708 l 247 0 l 11 0 l 188 708 l 424 708 m 228 -3 l 225 -12 q 165 -38 193 -12 q 138 -96 138 -64 q 175 -131 138 -131 q 196 -129 189 -131 l 167 -247 q 123 -256 143 -254 q 85 -258 103 -258 q -7 -232 22 -258 q -36 -165 -36 -206 q -8 -92 -36 -122 q 60 -42 19 -61 q 147 -12 101 -22 q 228 -3 193 -3 z "},"İ":{"ha":268,"x_min":10,"x_max":522,"o":"m 501 972 l 260 0 l 10 0 l 251 972 l 501 972 m 314 1124 q 352 1198 325 1171 q 438 1225 379 1225 q 508 1197 494 1225 q 511 1122 522 1169 q 472 1048 500 1075 q 388 1021 444 1021 q 317 1048 331 1021 q 314 1124 303 1075 z "},"Ĳ":{"ha":803,"x_min":10,"x_max":1038,"o":"m 501 972 l 260 0 l 10 0 l 251 972 l 501 972 m 1038 972 l 856 244 q 740 53 825 119 q 528 -14 656 -14 q 354 52 401 -14 q 339 244 307 118 l 394 465 l 644 465 l 585 225 q 588 203 579 203 q 601 225 596 203 l 788 972 l 1038 972 z "},"ĳ":{"ha":513,"x_min":11,"x_max":740,"o":"m 217 860 q 272 945 232 918 q 369 972 311 972 q 456 945 428 972 q 469 860 485 918 q 414 774 454 801 q 315 747 374 747 q 229 774 257 747 q 217 860 201 801 m 424 708 l 247 0 l 11 0 l 188 708 l 424 708 m 472 861 q 527 947 488 919 q 625 974 567 974 q 712 947 683 974 q 725 861 740 919 q 669 776 710 803 q 571 749 629 749 q 485 776 513 749 q 472 861 457 803 m 493 -40 q 390 -231 461 -169 q 224 -292 319 -292 q 133 -279 179 -292 l 183 -76 q 201 -78 189 -78 q 235 -70 221 -78 q 256 -43 250 -62 l 443 708 l 679 708 l 493 -40 z "},"Ĵ":{"ha":535,"x_min":39,"x_max":789,"o":"m 769 972 l 588 244 q 472 53 557 119 q 260 -14 388 -14 q 86 52 133 -14 q 71 244 39 118 l 126 465 l 376 465 l 317 225 q 319 203 311 203 q 333 225 328 203 l 519 972 l 769 972 m 511 1026 l 614 1217 l 781 1217 l 789 1026 l 665 1026 l 675 1090 l 667 1090 l 643 1026 l 511 1026 z "},"ĵ":{"ha":256,"x_min":-124,"x_max":449,"o":"m 236 -40 q 133 -231 204 -169 q -33 -292 63 -292 q -124 -279 -78 -292 l -74 -76 q -56 -78 -68 -78 q -22 -70 -36 -78 q -1 -43 -7 -62 l 186 708 l 422 708 l 236 -40 m 171 763 l 274 953 l 440 953 l 449 763 l 325 763 l 335 826 l 326 826 l 303 763 l 171 763 z "},"Ķ":{"ha":544,"x_min":10,"x_max":782,"o":"m 407 593 l 424 593 l 518 972 l 782 972 l 603 486 l 540 0 l 276 0 l 369 378 l 353 378 l 260 0 l 10 0 l 251 972 l 501 972 l 407 593 m 160 -56 l 349 -56 l 210 -246 l 89 -246 l 160 -56 z "},"ķ":{"ha":496,"x_min":10,"x_max":678,"o":"m 367 485 l 383 485 l 447 708 l 678 708 l 539 372 l 510 0 l 279 0 l 325 256 l 308 256 l 246 0 l 10 0 l 258 1000 l 494 1000 l 367 485 m 154 -56 l 343 -56 l 204 -246 l 83 -246 l 154 -56 z "},"ĸ":{"ha":496,"x_min":10,"x_max":678,"o":"m 367 485 l 383 485 l 447 708 l 678 708 l 540 372 l 510 0 l 279 0 l 326 256 l 310 256 l 246 0 l 10 0 l 186 708 l 422 708 l 367 485 z "},"Ĺ":{"ha":375,"x_min":10,"x_max":576,"o":"m 501 972 l 313 217 l 424 217 l 371 0 l 10 0 l 251 972 l 501 972 m 308 1028 l 396 1218 l 576 1218 l 461 1028 l 308 1028 z "},"ĺ":{"ha":254,"x_min":8,"x_max":572,"o":"m 258 1000 l 494 1000 l 244 0 l 8 0 l 258 1000 m 304 1056 l 392 1246 l 572 1246 l 457 1056 l 304 1056 z "},"Ļ":{"ha":375,"x_min":10,"x_max":501,"o":"m 501 972 l 313 217 l 424 217 l 371 0 l 10 0 l 251 972 l 501 972 m 88 -56 l 276 -56 l 138 -246 l 17 -246 l 88 -56 z "},"ļ":{"ha":254,"x_min":-58,"x_max":494,"o":"m 258 1000 l 494 1000 l 244 0 l 8 0 l 258 1000 m 13 -56 l 201 -56 l 63 -246 l -58 -246 l 13 -56 z "},"Ľ":{"ha":389,"x_min":10,"x_max":707,"o":"m 501 972 l 313 217 l 424 217 l 371 0 l 10 0 l 251 972 l 501 972 m 546 972 l 707 972 l 522 629 l 431 629 l 546 972 z "},"ľ":{"ha":254,"x_min":8,"x_max":700,"o":"m 258 1000 l 494 1000 l 244 0 l 8 0 l 258 1000 m 539 1000 l 700 1000 l 515 657 l 424 657 l 539 1000 z "},"Ŀ":{"ha":375,"x_min":10,"x_max":613,"o":"m 501 972 l 313 217 l 424 217 l 371 0 l 10 0 l 251 972 l 501 972 m 404 521 q 442 595 415 568 q 526 622 469 622 q 598 594 583 622 q 601 519 613 567 q 563 445 590 472 q 478 418 535 418 q 407 445 421 418 q 404 521 393 472 z "},"ŀ":{"ha":254,"x_min":8,"x_max":578,"o":"m 258 1000 l 494 1000 l 244 0 l 8 0 l 258 1000 m 369 456 q 408 530 381 503 q 492 557 435 557 q 563 529 549 557 q 567 454 578 501 q 528 380 556 407 q 443 353 500 353 q 372 380 386 353 q 369 456 358 407 z "},"Ń":{"ha":557,"x_min":10,"x_max":790,"o":"m 790 972 l 549 0 l 281 0 l 349 528 l 335 528 l 260 0 l 10 0 l 251 972 l 519 972 l 457 439 l 471 439 l 540 972 l 790 972 m 453 1028 l 540 1218 l 721 1218 l 606 1028 l 453 1028 z "},"ń":{"ha":507,"x_min":8,"x_max":644,"o":"m 185 708 l 421 708 l 406 647 l 422 647 q 551 722 479 722 q 597 713 576 722 q 629 681 618 703 q 642 624 640 658 q 632 540 644 589 l 497 0 l 261 0 l 388 506 q 383 517 390 517 q 372 510 379 517 l 244 0 l 8 0 l 185 708 m 360 764 l 447 954 l 628 954 l 513 764 l 360 764 z "},"Ņ":{"ha":557,"x_min":10,"x_max":790,"o":"m 790 972 l 549 0 l 281 0 l 349 528 l 335 528 l 260 0 l 10 0 l 251 972 l 519 972 l 457 439 l 471 439 l 540 972 l 790 972 m 163 -56 l 351 -56 l 213 -246 l 92 -246 l 163 -56 z "},"ņ":{"ha":507,"x_min":8,"x_max":644,"o":"m 185 708 l 421 708 l 406 647 l 422 647 q 551 722 479 722 q 597 713 576 722 q 629 681 618 703 q 642 624 640 658 q 632 540 644 589 l 497 0 l 261 0 l 388 506 q 383 517 390 517 q 372 510 379 517 l 244 0 l 8 0 l 185 708 m 143 -56 l 332 -56 l 193 -246 l 72 -246 l 143 -56 z "},"Ň":{"ha":557,"x_min":10,"x_max":790,"o":"m 790 972 l 549 0 l 281 0 l 349 528 l 335 528 l 260 0 l 10 0 l 251 972 l 519 972 l 457 439 l 471 439 l 540 972 l 790 972 m 719 1218 l 617 1028 l 450 1028 l 442 1218 l 565 1218 l 557 1154 l 565 1154 l 588 1218 l 719 1218 z "},"ň":{"ha":507,"x_min":8,"x_max":644,"o":"m 185 708 l 421 708 l 406 647 l 422 647 q 551 722 479 722 q 597 713 576 722 q 629 681 618 703 q 642 624 640 658 q 632 540 644 589 l 497 0 l 261 0 l 388 506 q 383 517 390 517 q 372 510 379 517 l 244 0 l 8 0 l 185 708 m 626 954 l 524 764 l 357 764 l 349 954 l 472 954 l 464 890 l 472 890 l 494 954 l 626 954 z "},"ŉ":{"ha":507,"x_min":4,"x_max":644,"o":"m 185 708 l 421 708 l 406 647 l 422 647 q 551 722 479 722 q 597 713 576 722 q 629 681 618 703 q 642 624 640 658 q 632 540 644 589 l 497 0 l 261 0 l 388 506 q 383 517 390 517 q 372 510 379 517 l 244 0 l 8 0 l 185 708 m 119 972 l 308 972 l 124 629 l 4 629 l 119 972 z "},"Ŋ":{"ha":557,"x_min":10,"x_max":790,"o":"m 790 972 l 538 -42 q 435 -232 506 -171 q 269 -293 364 -293 q 179 -281 225 -293 l 229 -78 q 238 -79 232 -79 q 269 -44 260 -79 l 281 0 l 349 528 l 335 528 l 260 0 l 10 0 l 253 972 l 519 972 l 456 439 l 469 439 l 540 972 l 790 972 z "},"ŋ":{"ha":507,"x_min":8,"x_max":644,"o":"m 488 -40 q 385 -231 456 -169 q 219 -292 314 -292 q 129 -279 175 -292 l 179 -76 q 196 -78 185 -78 q 231 -70 215 -78 q 251 -43 246 -62 l 388 506 q 383 517 390 517 q 372 510 379 517 l 244 0 l 8 0 l 186 708 l 422 708 l 407 647 l 424 647 q 551 722 481 722 q 597 713 576 722 q 630 681 618 703 q 643 624 642 658 q 632 540 644 589 l 488 -40 z "},"Ō":{"ha":535,"x_min":39,"x_max":739,"o":"m 192 729 q 305 921 224 856 q 510 986 386 986 q 688 919 636 986 q 708 729 739 853 l 588 244 q 472 53 556 119 q 261 -14 388 -14 q 88 52 138 -14 q 71 244 39 118 l 192 729 m 317 225 q 319 203 311 203 q 333 225 328 203 l 463 747 q 460 769 468 769 q 446 747 451 769 l 317 225 m 682 1033 l 376 1033 l 421 1214 l 726 1214 l 682 1033 z "},"ō":{"ha":507,"x_min":53,"x_max":644,"o":"m 129 483 q 168 580 142 536 q 233 655 194 624 q 321 704 271 686 q 431 722 371 722 q 533 704 492 722 q 599 654 575 686 q 627 578 622 622 q 619 483 632 535 l 554 225 q 515 130 542 174 q 448 54 488 86 q 358 4 408 22 q 247 -14 307 -14 q 147 4 188 -14 q 83 53 106 22 q 57 129 61 85 q 65 225 53 174 l 129 483 m 297 211 q 300 189 292 189 q 314 211 308 189 l 385 497 q 382 519 390 519 q 368 497 374 519 l 297 211 m 600 769 l 294 769 l 339 950 l 644 950 l 600 769 z "},"Ŏ":{"ha":535,"x_min":39,"x_max":742,"o":"m 192 729 q 305 921 224 856 q 510 986 386 986 q 688 919 636 986 q 708 729 739 853 l 588 244 q 472 53 556 119 q 261 -14 388 -14 q 88 52 138 -14 q 71 244 39 118 l 192 729 m 317 225 q 319 203 311 203 q 333 225 328 203 l 463 747 q 460 769 468 769 q 446 747 451 769 l 317 225 m 540 1218 q 558 1167 528 1167 q 601 1218 589 1167 l 742 1218 q 662 1071 715 1114 q 525 1028 608 1028 q 409 1071 442 1028 q 403 1218 376 1114 l 540 1218 z "},"ŏ":{"ha":507,"x_min":53,"x_max":660,"o":"m 129 483 q 168 580 142 536 q 233 655 194 624 q 321 704 271 686 q 431 722 371 722 q 533 704 492 722 q 599 654 575 686 q 627 578 622 622 q 619 483 632 535 l 554 225 q 515 130 542 174 q 448 54 488 86 q 358 4 408 22 q 247 -14 307 -14 q 147 4 188 -14 q 83 53 106 22 q 57 129 61 85 q 65 225 53 174 l 129 483 m 297 211 q 300 189 292 189 q 314 211 308 189 l 385 497 q 382 519 390 519 q 368 497 374 519 l 297 211 m 458 954 q 476 903 446 903 q 519 954 507 903 l 660 954 q 580 807 633 850 q 443 764 526 764 q 327 807 360 764 q 321 954 294 850 l 458 954 z "},"Ő":{"ha":535,"x_min":39,"x_max":751,"o":"m 192 729 q 305 921 224 856 q 510 986 386 986 q 688 919 636 986 q 708 729 739 853 l 588 244 q 472 53 556 119 q 261 -14 388 -14 q 88 52 138 -14 q 71 244 39 118 l 192 729 m 317 225 q 319 203 311 203 q 333 225 328 203 l 463 747 q 460 769 468 769 q 446 747 451 769 l 317 225 m 369 1028 l 457 1218 l 596 1218 l 481 1028 l 369 1028 m 525 1028 l 613 1218 l 751 1218 l 636 1028 l 525 1028 z "},"ő":{"ha":507,"x_min":53,"x_max":669,"o":"m 129 483 q 168 580 142 536 q 233 655 194 624 q 321 704 271 686 q 431 722 371 722 q 533 704 492 722 q 599 654 575 686 q 627 578 622 622 q 619 483 632 535 l 554 225 q 515 130 542 174 q 448 54 488 86 q 358 4 408 22 q 247 -14 307 -14 q 147 4 188 -14 q 83 53 106 22 q 57 129 61 85 q 65 225 53 174 l 129 483 m 297 211 q 300 189 292 189 q 314 211 308 189 l 385 497 q 382 519 390 519 q 368 497 374 519 l 297 211 m 288 764 l 375 954 l 514 954 l 399 764 l 288 764 m 443 764 l 531 954 l 669 954 l 554 764 l 443 764 z "},"Ŕ":{"ha":535,"x_min":10,"x_max":738,"o":"m 508 972 q 685 909 633 972 q 704 713 738 846 l 700 692 q 661 594 686 636 q 608 522 636 551 q 551 478 581 493 q 500 464 522 464 l 496 447 q 539 431 518 447 q 573 383 560 414 q 590 308 586 353 q 579 208 593 264 l 576 197 q 552 93 561 142 q 540 0 543 44 l 290 0 q 302 94 293 46 q 326 200 311 143 l 357 325 q 360 344 361 340 q 349 347 360 347 l 346 347 l 260 0 l 10 0 l 253 972 l 508 972 m 400 564 l 403 564 q 417 570 415 564 q 422 586 419 576 l 460 735 q 463 752 463 749 q 451 756 463 756 l 449 756 l 400 564 m 436 1028 l 524 1218 l 704 1218 l 589 1028 l 436 1028 z "},"ŕ":{"ha":399,"x_min":8,"x_max":574,"o":"m 399 619 l 404 619 q 468 693 429 664 q 551 722 507 722 q 568 721 563 722 l 510 486 q 491 488 500 488 q 472 489 482 489 q 384 460 415 489 q 338 375 353 432 l 244 0 l 8 0 l 185 708 l 421 708 l 399 619 m 306 764 l 393 954 l 574 954 l 458 764 l 306 764 z "},"Ŗ":{"ha":535,"x_min":10,"x_max":738,"o":"m 508 972 q 685 909 633 972 q 704 713 738 846 l 700 692 q 661 594 686 636 q 608 522 636 551 q 551 478 581 493 q 500 464 522 464 l 496 447 q 539 431 518 447 q 573 383 560 414 q 590 308 586 353 q 579 208 593 264 l 576 197 q 552 93 561 142 q 540 0 543 44 l 290 0 q 302 94 293 46 q 326 200 311 143 l 357 325 q 360 344 361 340 q 349 347 360 347 l 346 347 l 260 0 l 10 0 l 253 972 l 508 972 m 400 564 l 403 564 q 417 570 415 564 q 422 586 419 576 l 460 735 q 463 752 463 749 q 451 756 463 756 l 449 756 l 400 564 m 168 -56 l 357 -56 l 218 -246 l 97 -246 l 168 -56 z "},"ŗ":{"ha":399,"x_min":-58,"x_max":568,"o":"m 399 619 l 404 619 q 468 693 429 664 q 551 722 507 722 q 568 721 563 722 l 510 486 q 491 488 500 488 q 472 489 482 489 q 384 460 415 489 q 338 375 353 432 l 244 0 l 8 0 l 185 708 l 421 708 l 399 619 m 13 -56 l 201 -56 l 63 -246 l -58 -246 l 13 -56 z "},"Ř":{"ha":535,"x_min":10,"x_max":738,"o":"m 508 972 q 685 909 633 972 q 704 713 738 846 l 700 692 q 661 594 686 636 q 608 522 636 551 q 551 478 581 493 q 500 464 522 464 l 496 447 q 539 431 518 447 q 573 383 560 414 q 590 308 586 353 q 579 208 593 264 l 576 197 q 552 93 561 142 q 540 0 543 44 l 290 0 q 302 94 293 46 q 326 200 311 143 l 357 325 q 360 344 361 340 q 349 347 360 347 l 346 347 l 260 0 l 10 0 l 253 972 l 508 972 m 400 564 l 403 564 q 417 570 415 564 q 422 586 419 576 l 460 735 q 463 752 463 749 q 451 756 463 756 l 449 756 l 400 564 m 703 1218 l 600 1028 l 433 1028 l 425 1218 l 549 1218 l 540 1154 l 549 1154 l 571 1218 l 703 1218 z "},"ř":{"ha":399,"x_min":8,"x_max":572,"o":"m 399 619 l 404 619 q 468 693 429 664 q 551 722 507 722 q 568 721 563 722 l 510 486 q 491 488 500 488 q 472 489 482 489 q 384 460 415 489 q 338 375 353 432 l 244 0 l 8 0 l 185 708 l 421 708 l 399 619 m 572 954 l 469 764 l 303 764 l 294 954 l 418 954 l 410 890 l 418 890 l 440 954 l 572 954 z "},"Ś":{"ha":535,"x_min":39,"x_max":739,"o":"m 436 639 l 463 747 q 460 769 468 769 q 446 747 451 769 l 426 669 q 422 644 422 654 q 430 623 422 633 q 456 599 438 613 q 510 563 475 585 l 542 542 q 590 499 572 522 q 613 443 607 475 q 613 367 618 411 q 592 263 607 324 l 586 244 q 472 53 556 119 q 261 -14 388 -14 q 88 52 136 -14 q 71 244 39 118 l 93 333 l 343 333 l 317 225 q 319 203 311 203 q 332 224 328 203 l 353 306 q 357 331 357 321 q 350 350 357 340 q 326 372 343 360 q 279 406 310 385 l 242 431 q 192 476 210 451 q 168 533 174 500 q 168 611 163 567 q 189 717 174 656 l 196 743 q 305 923 224 860 q 510 986 386 986 q 687 919 635 986 q 707 729 739 853 l 685 639 l 436 639 m 443 1028 l 531 1218 l 711 1218 l 596 1028 l 443 1028 z "},"ś":{"ha":507,"x_min":50,"x_max":633,"o":"m 378 467 l 386 497 q 382 518 390 518 q 369 497 374 518 l 369 496 q 369 467 364 476 q 394 447 374 458 l 481 399 q 551 330 532 369 q 551 219 569 290 l 546 197 q 510 117 536 156 q 445 50 483 79 q 356 3 407 21 q 246 -14 306 -14 q 146 3 186 -14 q 83 52 106 21 q 55 125 60 83 q 63 214 50 167 l 69 242 l 306 242 l 299 214 q 301 193 294 193 q 315 214 311 193 l 315 215 q 315 244 321 235 q 285 265 310 253 l 197 311 q 129 378 144 339 q 132 489 114 418 l 138 511 q 174 591 149 553 q 236 658 199 629 q 323 705 274 688 q 432 722 372 722 q 533 704 492 722 q 597 656 574 686 q 627 584 621 625 q 621 496 633 543 l 614 467 l 378 467 m 361 764 l 449 954 l 629 954 l 514 764 l 361 764 z "},"Ŝ":{"ha":535,"x_min":39,"x_max":739,"o":"m 436 639 l 463 747 q 460 769 468 769 q 446 747 451 769 l 426 669 q 422 644 422 654 q 430 623 422 633 q 456 599 438 613 q 510 563 475 585 l 542 542 q 590 499 572 522 q 613 443 607 475 q 613 367 618 411 q 592 263 607 324 l 586 244 q 472 53 556 119 q 261 -14 388 -14 q 88 52 136 -14 q 71 244 39 118 l 93 333 l 343 333 l 317 225 q 319 203 311 203 q 332 224 328 203 l 353 306 q 357 331 357 321 q 350 350 357 340 q 326 372 343 360 q 279 406 310 385 l 242 431 q 192 476 210 451 q 168 533 174 500 q 168 611 163 567 q 189 717 174 656 l 196 743 q 305 923 224 860 q 510 986 386 986 q 687 919 635 986 q 707 729 739 853 l 685 639 l 436 639 m 381 1026 l 483 1217 l 650 1217 l 658 1026 l 535 1026 l 544 1090 l 536 1090 l 513 1026 l 381 1026 z "},"ŝ":{"ha":507,"x_min":50,"x_max":633,"o":"m 378 467 l 386 497 q 382 518 390 518 q 369 497 374 518 l 369 496 q 369 467 364 476 q 394 447 374 458 l 481 399 q 551 330 532 369 q 551 219 569 290 l 546 197 q 510 117 536 156 q 445 50 483 79 q 356 3 407 21 q 246 -14 306 -14 q 146 3 186 -14 q 83 52 106 21 q 55 125 60 83 q 63 214 50 167 l 69 242 l 306 242 l 299 214 q 301 193 294 193 q 315 214 311 193 l 315 215 q 315 244 321 235 q 285 265 310 253 l 197 311 q 129 378 144 339 q 132 489 114 418 l 138 511 q 174 591 149 553 q 236 658 199 629 q 323 705 274 688 q 432 722 372 722 q 533 704 492 722 q 597 656 574 686 q 627 584 621 625 q 621 496 633 543 l 614 467 l 378 467 m 299 763 l 401 953 l 568 953 l 576 763 l 453 763 l 463 826 l 454 826 l 431 763 l 299 763 z "},"Ş":{"ha":535,"x_min":39,"x_max":739,"o":"m 436 639 l 463 747 q 460 769 468 769 q 446 747 451 769 l 426 669 q 422 644 422 654 q 430 623 422 633 q 456 599 438 613 q 510 563 475 585 l 542 542 q 590 499 572 522 q 613 443 607 475 q 613 367 618 411 q 592 263 607 324 l 586 244 q 472 53 556 119 q 261 -14 388 -14 q 88 52 136 -14 q 71 244 39 118 l 93 333 l 343 333 l 317 225 q 319 203 311 203 q 332 224 328 203 l 353 306 q 357 331 357 321 q 350 350 357 340 q 326 372 343 360 q 279 406 310 385 l 242 431 q 192 476 210 451 q 168 533 174 500 q 168 611 163 567 q 189 717 174 656 l 196 743 q 305 923 224 860 q 510 986 386 986 q 687 919 635 986 q 707 729 739 853 l 685 639 l 436 639 m 375 0 l 467 0 l 442 -69 q 526 -92 500 -69 q 553 -149 553 -115 q 533 -201 553 -179 q 483 -238 513 -224 q 420 -260 454 -253 q 358 -267 386 -267 q 260 -256 319 -267 l 282 -168 q 317 -172 300 -172 q 335 -171 324 -172 q 358 -167 346 -169 q 378 -159 369 -164 q 386 -146 386 -154 q 369 -130 386 -135 q 321 -125 351 -125 l 375 0 z "},"ş":{"ha":507,"x_min":50,"x_max":633,"o":"m 378 467 l 386 497 q 382 518 390 518 q 369 497 374 518 l 369 496 q 369 467 364 476 q 394 447 374 458 l 481 399 q 551 330 532 369 q 551 219 569 290 l 546 197 q 510 117 536 156 q 445 50 483 79 q 356 3 407 21 q 246 -14 306 -14 q 146 3 186 -14 q 83 52 106 21 q 55 125 60 83 q 63 214 50 167 l 69 242 l 306 242 l 299 214 q 301 193 294 193 q 315 214 311 193 l 315 215 q 315 244 321 235 q 285 265 310 253 l 197 311 q 129 378 144 339 q 132 489 114 418 l 138 511 q 174 591 149 553 q 236 658 199 629 q 323 705 274 688 q 432 722 372 722 q 533 704 492 722 q 597 656 574 686 q 627 584 621 625 q 621 496 633 543 l 614 467 l 378 467 m 210 0 l 301 0 l 276 -69 q 361 -92 335 -69 q 388 -149 388 -115 q 367 -201 388 -179 q 318 -238 347 -224 q 255 -260 289 -253 q 193 -267 221 -267 q 94 -256 154 -267 l 117 -168 q 151 -172 135 -172 q 169 -171 158 -172 q 192 -167 181 -169 q 213 -159 204 -164 q 221 -146 221 -154 q 203 -130 221 -135 q 156 -125 186 -125 l 210 0 z "},"Ţ":{"ha":513,"x_min":106,"x_max":749,"o":"m 694 756 l 569 756 l 381 0 l 131 0 l 319 756 l 194 756 l 249 972 l 749 972 l 694 756 m 221 11 l 313 11 l 288 -58 q 372 -81 346 -58 q 399 -137 399 -104 q 378 -190 399 -168 q 329 -227 358 -212 q 266 -249 300 -242 q 204 -256 232 -256 q 106 -244 165 -256 l 128 -157 q 163 -161 146 -161 q 181 -160 169 -161 q 203 -156 192 -158 q 224 -148 215 -153 q 232 -135 232 -143 q 215 -119 232 -124 q 167 -114 197 -114 l 221 11 z "},"ţ":{"ha":397,"x_min":67,"x_max":568,"o":"m 178 708 l 233 708 l 271 861 l 510 875 l 468 708 l 568 708 l 517 506 l 418 506 l 354 250 q 363 207 347 218 q 401 196 378 196 q 422 197 413 196 q 440 200 431 199 l 390 -1 q 267 -14 322 -14 q 181 -2 218 -14 q 124 39 144 10 q 101 116 104 68 q 115 236 97 164 l 182 506 l 126 506 l 178 708 m 182 0 l 274 0 l 249 -69 q 333 -92 307 -69 q 360 -149 360 -115 q 340 -201 360 -179 q 290 -238 319 -224 q 227 -260 261 -253 q 165 -267 193 -267 q 67 -256 126 -267 l 89 -168 q 124 -172 107 -172 q 142 -171 131 -172 q 165 -167 153 -169 q 185 -159 176 -164 q 193 -146 193 -154 q 176 -130 193 -135 q 128 -125 158 -125 l 182 0 z "},"Ť":{"ha":513,"x_min":131,"x_max":749,"o":"m 694 756 l 569 756 l 381 0 l 131 0 l 319 756 l 194 756 l 249 972 l 749 972 l 694 756 m 696 1218 l 593 1028 l 426 1028 l 418 1218 l 542 1218 l 533 1154 l 542 1154 l 564 1218 l 696 1218 z "},"ť":{"ha":397,"x_min":97,"x_max":731,"o":"m 178 708 l 233 708 l 271 861 l 510 875 l 468 708 l 568 708 l 517 506 l 418 506 l 354 250 q 363 207 347 218 q 401 196 378 196 q 422 197 413 196 q 440 200 431 199 l 390 -1 q 267 -14 322 -14 q 181 -2 218 -14 q 124 39 144 10 q 101 116 104 68 q 115 236 97 164 l 182 506 l 126 506 l 178 708 m 583 986 l 731 986 l 604 768 l 499 768 l 583 986 z "},"Ŧ":{"ha":513,"x_min":131,"x_max":749,"o":"m 694 756 l 569 756 l 381 0 l 131 0 l 319 756 l 194 756 l 249 972 l 749 972 l 694 756 m 519 357 l 172 357 l 213 518 l 560 518 l 519 357 z "},"ŧ":{"ha":397,"x_min":82,"x_max":568,"o":"m 178 708 l 233 708 l 271 861 l 510 875 l 468 708 l 568 708 l 517 506 l 418 506 l 354 250 q 363 207 347 218 q 401 196 378 196 q 422 197 413 196 q 440 200 431 199 l 390 -1 q 267 -14 322 -14 q 181 -2 218 -14 q 124 39 144 10 q 101 116 104 68 q 115 236 97 164 l 182 506 l 126 506 l 178 708 m 472 324 l 82 324 l 115 457 l 506 457 l 472 324 z "},"Ũ":{"ha":535,"x_min":39,"x_max":769,"o":"m 503 972 l 317 225 q 319 203 311 203 q 333 225 328 203 l 519 972 l 769 972 l 588 244 q 472 53 557 119 q 261 -14 388 -14 q 88 52 136 -14 q 71 244 39 118 l 253 972 l 503 972 m 699 1211 q 647 1072 675 1115 q 583 1028 619 1028 q 549 1035 565 1028 q 518 1051 533 1043 l 514 1054 q 491 1067 501 1061 q 471 1072 481 1072 q 439 1035 447 1072 l 439 1033 l 383 1033 l 385 1036 q 437 1171 407 1124 q 503 1218 467 1218 q 534 1211 518 1218 q 565 1196 550 1204 l 569 1193 q 594 1181 582 1186 q 615 1176 606 1176 q 646 1211 638 1176 l 647 1214 l 700 1214 l 699 1211 z "},"ũ":{"ha":507,"x_min":28,"x_max":675,"o":"m 499 0 l 263 0 l 278 61 l 261 61 q 132 -14 204 -14 q 54 28 81 -14 q 51 168 28 71 l 186 708 l 422 708 l 294 197 q 299 186 292 186 q 310 193 303 186 l 439 708 l 675 708 l 499 0 m 617 947 q 565 808 593 851 q 501 764 538 764 q 467 772 483 764 q 436 788 451 779 l 432 790 q 409 803 419 797 q 389 808 399 808 q 357 771 365 808 l 357 769 l 301 769 l 303 772 q 355 907 325 860 q 421 954 385 954 q 452 947 436 954 q 483 932 468 940 l 488 929 q 512 917 500 922 q 533 913 524 913 q 564 947 556 913 l 565 950 l 618 950 l 617 947 z "},"Ū":{"ha":535,"x_min":39,"x_max":769,"o":"m 503 972 l 317 225 q 319 203 311 203 q 333 225 328 203 l 519 972 l 769 972 l 588 244 q 472 53 557 119 q 261 -14 388 -14 q 88 52 136 -14 q 71 244 39 118 l 253 972 l 503 972 m 682 1033 l 376 1033 l 421 1214 l 726 1214 l 682 1033 z "},"ū":{"ha":507,"x_min":28,"x_max":675,"o":"m 499 0 l 263 0 l 278 61 l 261 61 q 132 -14 204 -14 q 54 28 81 -14 q 51 168 28 71 l 186 708 l 422 708 l 294 197 q 299 186 292 186 q 310 193 303 186 l 439 708 l 675 708 l 499 0 m 600 769 l 294 769 l 339 950 l 644 950 l 600 769 z "},"Ŭ":{"ha":535,"x_min":39,"x_max":769,"o":"m 503 972 l 317 225 q 319 203 311 203 q 333 225 328 203 l 519 972 l 769 972 l 588 244 q 472 53 557 119 q 261 -14 388 -14 q 88 52 136 -14 q 71 244 39 118 l 253 972 l 503 972 m 540 1218 q 558 1167 528 1167 q 601 1218 589 1167 l 742 1218 q 662 1071 715 1114 q 525 1028 608 1028 q 409 1071 442 1028 q 403 1218 376 1114 l 540 1218 z "},"ŭ":{"ha":507,"x_min":28,"x_max":675,"o":"m 499 0 l 263 0 l 278 61 l 261 61 q 132 -14 204 -14 q 54 28 81 -14 q 51 168 28 71 l 186 708 l 422 708 l 294 197 q 299 186 292 186 q 310 193 303 186 l 439 708 l 675 708 l 499 0 m 458 954 q 476 903 446 903 q 519 954 507 903 l 660 954 q 580 807 633 850 q 443 764 526 764 q 327 807 360 764 q 321 954 294 850 l 458 954 z "},"Ů":{"ha":535,"x_min":39,"x_max":769,"o":"m 503 972 l 317 225 q 319 203 311 203 q 333 225 328 203 l 519 972 l 769 972 l 588 244 q 472 53 557 119 q 261 -14 388 -14 q 88 52 136 -14 q 71 244 39 118 l 253 972 l 503 972 m 428 1126 q 476 1201 440 1176 q 565 1225 513 1225 q 649 1199 621 1225 q 664 1118 678 1174 q 525 1021 639 1021 q 442 1046 469 1021 q 428 1126 414 1071 m 503 1124 q 538 1089 494 1089 q 589 1124 581 1089 q 554 1157 597 1157 q 503 1124 511 1157 z "},"ů":{"ha":507,"x_min":28,"x_max":675,"o":"m 499 0 l 263 0 l 278 61 l 261 61 q 132 -14 204 -14 q 54 28 81 -14 q 51 168 28 71 l 186 708 l 422 708 l 294 197 q 299 186 292 186 q 310 193 303 186 l 439 708 l 675 708 l 499 0 m 346 863 q 394 937 358 913 q 483 961 431 961 q 567 935 539 961 q 582 854 596 910 q 443 757 557 757 q 360 782 388 757 q 346 863 332 807 m 421 860 q 456 825 413 825 q 507 860 499 825 q 472 893 515 893 q 421 860 429 893 z "},"Ű":{"ha":535,"x_min":39,"x_max":769,"o":"m 503 972 l 317 225 q 319 203 311 203 q 333 225 328 203 l 519 972 l 769 972 l 588 244 q 472 53 557 119 q 261 -14 388 -14 q 88 52 136 -14 q 71 244 39 118 l 253 972 l 503 972 m 369 1028 l 457 1218 l 596 1218 l 481 1028 l 369 1028 m 525 1028 l 613 1218 l 751 1218 l 636 1028 l 525 1028 z "},"ű":{"ha":507,"x_min":28,"x_max":675,"o":"m 499 0 l 263 0 l 278 61 l 261 61 q 132 -14 204 -14 q 54 28 81 -14 q 51 168 28 71 l 186 708 l 422 708 l 294 197 q 299 186 292 186 q 310 193 303 186 l 439 708 l 675 708 l 499 0 m 288 764 l 375 954 l 514 954 l 399 764 l 288 764 m 443 764 l 531 954 l 669 954 l 554 764 l 443 764 z "},"Ų":{"ha":535,"x_min":39,"x_max":769,"o":"m 503 972 l 317 225 q 319 203 311 203 q 333 225 328 203 l 519 972 l 769 972 l 588 244 q 472 53 557 119 q 261 -14 388 -14 q 88 52 136 -14 q 71 244 39 118 l 253 972 l 503 972 m 367 11 l 364 1 q 304 -24 332 1 q 276 -82 276 -50 q 314 -117 276 -117 q 335 -115 328 -117 l 306 -233 q 262 -242 282 -240 q 224 -244 242 -244 q 132 -218 161 -244 q 103 -151 103 -192 q 131 -78 103 -108 q 199 -28 158 -47 q 286 1 240 -8 q 367 11 332 11 z "},"ų":{"ha":507,"x_min":28,"x_max":675,"o":"m 499 0 l 263 0 l 278 61 l 261 61 q 132 -14 204 -14 q 54 28 81 -14 q 51 168 28 71 l 186 708 l 422 708 l 294 197 q 299 186 292 186 q 310 193 303 186 l 439 708 l 675 708 l 499 0 m 501 11 l 499 1 q 439 -24 467 1 q 411 -82 411 -50 q 449 -117 411 -117 q 469 -115 463 -117 l 440 -233 q 397 -242 417 -240 q 358 -244 376 -244 q 267 -218 296 -244 q 238 -151 238 -192 q 265 -78 238 -108 q 334 -28 293 -47 q 421 1 375 -8 q 501 11 467 11 z "},"Ŵ":{"ha":704,"x_min":67,"x_max":942,"o":"m 497 972 l 350 436 l 367 436 l 514 972 l 675 972 l 556 436 l 572 436 l 692 972 l 942 972 l 633 0 l 358 0 l 443 343 l 426 343 l 342 0 l 67 0 l 247 972 l 497 972 m 460 1026 l 563 1217 l 729 1217 l 738 1026 l 614 1026 l 624 1090 l 615 1090 l 592 1026 l 460 1026 z "},"ŵ":{"ha":679,"x_min":85,"x_max":850,"o":"m 419 708 l 313 335 l 329 335 l 436 708 l 597 708 l 518 335 l 535 335 l 614 708 l 850 708 l 596 0 l 349 0 l 406 228 l 389 228 l 332 0 l 85 0 l 183 708 l 419 708 m 386 763 l 489 953 l 656 953 l 664 763 l 540 763 l 550 826 l 542 826 l 518 763 l 386 763 z "},"Ŷ":{"ha":526,"x_min":136,"x_max":764,"o":"m 497 972 l 407 607 l 424 607 l 514 972 l 764 972 l 451 264 l 386 0 l 136 0 l 201 264 l 247 972 l 497 972 m 375 1026 l 478 1217 l 644 1217 l 653 1026 l 529 1026 l 539 1090 l 531 1090 l 507 1026 l 375 1026 z "},"ŷ":{"ha":507,"x_min":-36,"x_max":675,"o":"m 478 -81 q 376 -237 453 -182 q 182 -292 300 -292 q 14 -236 64 -292 q -11 -81 -36 -181 l 0 -36 l 236 -36 l 229 -67 q 232 -89 224 -89 q 246 -64 240 -89 l 276 61 l 260 61 q 132 -14 203 -14 q 53 28 81 -14 q 51 168 26 71 l 186 708 l 422 708 l 294 197 q 299 186 292 186 q 310 193 303 186 l 439 708 l 675 708 l 478 -81 m 299 763 l 401 953 l 568 953 l 576 763 l 453 763 l 463 826 l 454 826 l 431 763 l 299 763 z "},"Ź":{"ha":471,"x_min":6,"x_max":693,"o":"m 693 972 l 639 754 l 318 229 l 325 217 l 521 217 l 467 0 l 6 0 l 60 217 l 382 743 l 374 756 l 207 756 l 261 972 l 693 972 m 410 1028 l 497 1218 l 678 1218 l 563 1028 l 410 1028 z "},"ź":{"ha":436,"x_min":8,"x_max":603,"o":"m 8 0 l 60 201 l 281 490 l 278 506 l 142 506 l 193 708 l 594 708 l 543 507 l 321 217 l 326 203 l 478 203 l 426 0 l 8 0 m 335 763 l 422 953 l 603 953 l 488 763 l 335 763 z "},"Ż":{"ha":471,"x_min":6,"x_max":693,"o":"m 693 972 l 639 754 l 318 229 l 325 217 l 521 217 l 467 0 l 6 0 l 60 217 l 382 743 l 374 756 l 207 756 l 261 972 l 693 972 m 417 1124 q 455 1198 428 1171 q 540 1225 482 1225 q 611 1197 597 1225 q 614 1122 625 1169 q 575 1048 603 1075 q 490 1021 547 1021 q 419 1048 433 1021 q 417 1124 406 1075 z "},"ż":{"ha":436,"x_min":8,"x_max":594,"o":"m 8 0 l 60 201 l 281 490 l 278 506 l 142 506 l 193 708 l 594 708 l 543 507 l 321 217 l 326 203 l 478 203 l 426 0 l 8 0 m 342 858 q 380 933 353 906 q 465 960 407 960 q 536 932 522 960 q 539 857 550 904 q 500 783 528 810 q 415 756 472 756 q 344 783 358 756 q 342 858 331 810 z "},"ſ":{"ha":676,"x_min":10,"x_max":911,"o":"m 251 972 l 911 972 l 668 0 l 10 0 l 251 972 m 474 543 l 782 903 l 346 903 l 474 543 m 626 115 l 813 858 l 494 486 l 626 115 m 107 114 l 425 486 l 292 858 l 107 114 m 138 69 l 574 69 l 446 429 l 138 69 z "},"̦":{"ha":229,"x_min":-43,"x_max":217,"o":"m 28 -14 l 217 -14 l 78 -204 l -43 -204 l 28 -14 z "},"ȷ":{"ha":256,"x_min":-124,"x_max":422,"o":"m 236 -40 q 133 -231 204 -169 q -33 -292 63 -292 q -124 -279 -78 -292 l -74 -76 q -56 -78 -68 -78 q -22 -70 -36 -78 q -1 -43 -7 -62 l 186 708 l 422 708 l 236 -40 z "}}}
